<?xml version="1.0" encoding="UTF-8" standalone="no"?>
<!DOCTYPE svg PUBLIC "-//W3C//DTD SVG 1.1//EN"
 "http://www.w3.org/Graphics/SVG/1.1/DTD/svg11.dtd">
<!-- Generated by graphviz version 2.40.1 (20161225.0304)
 -->
<!-- Title: G Pages: 1 -->
<svg width="774pt" height="650pt"
 viewBox="0.00 0.00 774.11 649.80" xmlns="http://www.w3.org/2000/svg" xmlns:xlink="http://www.w3.org/1999/xlink">
<g id="graph0" class="graph" transform="scale(1 1) rotate(0) translate(4 645.8)">
<title>G</title>
<polygon fill="#ffffff" stroke="transparent" points="-4,4 -4,-645.8 770.1066,-645.8 770.1066,4 -4,4"/>
<!-- 2 -->
<g id="node1" class="node">
<title>2</title>
<polygon fill="none" stroke="#000000" points="269.745,-480 207.972,-480 207.972,-444 269.745,-444 269.745,-480"/>
<text text-anchor="middle" x="238.8585" y="-457.8" font-family="Times,serif" font-size="14.00" fill="#000000">Monitor</text>
</g>
<!-- 9 -->
<g id="node4" class="node">
<title>9</title>
<polygon fill="none" stroke="#000000" stroke-dasharray="5,2" points="513.7583,-391.2 350.0677,-391.2 307.9587,-355.2 471.6492,-355.2 513.7583,-391.2"/>
<text text-anchor="middle" x="410.8585" y="-369" font-family="Times,serif" font-size="14.00" fill="#000000">th_sendToMon</text>
</g>
<!-- 2&#45;&gt;9 -->
<g id="edge5" class="edge">
<title>2&#45;&gt;9</title>
<path fill="none" stroke="#000000" d="M249.1729,-423.9902C249.1729,-423.9902 249.1729,-379 249.1729,-379 249.1729,-379 315.6958,-379 315.6958,-379"/>
<polygon fill="#000000" stroke="#000000" points="245.6729,-443.9902 249.1729,-433.9902 252.6729,-443.9903 245.6729,-443.9902"/>
<polygon fill="#000000" stroke="#000000" points="249.173,-423.9902 244.6729,-433.9902 249.1729,-428.9902 249.1729,-433.9902 249.1729,-433.9902 249.1729,-433.9902 249.1729,-428.9902 253.6729,-433.9903 249.173,-423.9902 249.173,-423.9902"/>
<polygon fill="#000000" stroke="#000000" points="335.6958,-379 325.6958,-383.5 330.6958,-379 325.6958,-379 325.6958,-379 325.6958,-379 330.6958,-379 325.6957,-374.5 335.6958,-379 335.6958,-379"/>
<polygon fill="#000000" stroke="#000000" points="315.6958,-382.5001 325.6958,-379 315.6957,-375.5001 315.6958,-382.5001"/>
<text text-anchor="middle" x="328.5759" y="-413.4" font-family="Times,serif" font-size="14.00" fill="#000000">outputStream</text>
</g>
<!-- 3 -->
<g id="node2" class="node">
<title>3</title>
<polygon fill="none" stroke="#000000" stroke-dasharray="5,2" points="137.5757,-124.8 28.262,-124.8 .1412,-88.8 109.455,-88.8 137.5757,-124.8"/>
<text text-anchor="middle" x="68.8585" y="-102.6" font-family="Times,serif" font-size="14.00" fill="#000000">th_server</text>
</g>
<!-- 3&#45;&gt;2 -->
<g id="edge1" class="edge">
<title>3&#45;&gt;2</title>
<path fill="none" stroke="#000000" d="M36.764,-134.8518C36.764,-134.8518 36.764,-461 36.764,-461 36.764,-461 197.7241,-461 197.7241,-461"/>
<polygon fill="#000000" stroke="#000000" points="36.764,-124.8518 41.2641,-134.8517 36.764,-129.8518 36.7641,-134.8518 36.7641,-134.8518 36.7641,-134.8518 36.764,-129.8518 32.2641,-134.8518 36.764,-124.8518 36.764,-124.8518"/>
<polygon fill="#000000" stroke="#000000" points="197.7241,-461.0001 207.7241,-465.5 202.7241,-461 207.7241,-461 207.7241,-461 207.7241,-461 202.7241,-461 207.7241,-456.5 197.7241,-461.0001 197.7241,-461.0001"/>
<text text-anchor="middle" x="87.3922" y="-280.2" font-family="Times,serif" font-size="14.00" fill="#000000">connnectServer</text>
</g>
<!-- 3&#45;&gt;9 -->
<g id="edge4" class="edge">
<title>3&#45;&gt;9</title>
<path fill="none" stroke="#000000" d="M73.528,-135.0968C73.528,-135.0968 73.528,-367 73.528,-367 73.528,-367 311.3457,-367 311.3457,-367"/>
<polygon fill="#000000" stroke="#000000" points="73.528,-125.0968 78.0281,-135.0967 73.528,-130.0968 73.5281,-135.0968 73.5281,-135.0968 73.5281,-135.0968 73.528,-130.0968 69.0281,-135.0968 73.528,-125.0968 73.528,-125.0968"/>
<polygon fill="#000000" stroke="#000000" points="311.3457,-367.0001 321.3458,-371.5 316.3457,-367 321.3457,-367 321.3457,-367 321.3457,-367 316.3457,-367 321.3457,-362.5 311.3457,-367.0001 311.3457,-367.0001"/>
<text text-anchor="middle" x="115.0626" y="-235.8" font-family="Times,serif" font-size="14.00" fill="#000000">serverOK</text>
</g>
<!-- 5 -->
<g id="node3" class="node">
<title>5</title>
<polygon fill="none" stroke="#000000" stroke-dasharray="5,2" points="375.4915,-213.6 164.502,-213.6 110.2254,-177.6 321.2149,-177.6 375.4915,-213.6"/>
<text text-anchor="middle" x="242.8585" y="-191.4" font-family="Times,serif" font-size="14.00" fill="#000000">th_receiveFromMon</text>
</g>
<!-- 5&#45;&gt;2 -->
<g id="edge2" class="edge">
<title>5&#45;&gt;2</title>
<path fill="none" stroke="#000000" d="M228.5441,-233.9108C228.5441,-233.9108 228.5441,-423.9134 228.5441,-423.9134"/>
<polygon fill="#000000" stroke="#000000" points="225.0441,-443.9134 228.5441,-433.9134 232.0441,-443.9134 225.0441,-443.9134"/>
<polygon fill="#000000" stroke="#000000" points="228.5441,-423.9134 224.0441,-433.9134 228.5441,-428.9134 228.5441,-433.9134 228.5441,-433.9134 228.5441,-433.9134 228.5441,-428.9134 233.0441,-433.9134 228.5441,-423.9134 228.5441,-423.9134"/>
<polygon fill="#000000" stroke="#000000" points="228.5441,-213.9108 233.0441,-223.9107 228.5441,-218.9108 228.5441,-223.9108 228.5441,-223.9108 228.5441,-223.9108 228.5441,-218.9108 224.0441,-223.9108 228.5441,-213.9108 228.5441,-213.9108"/>
<polygon fill="#000000" stroke="#000000" points="232.0441,-233.9107 228.5441,-223.9108 225.0441,-233.9108 232.0441,-233.9107"/>
<text text-anchor="middle" x="273.0759" y="-324.6" font-family="Times,serif" font-size="14.00" fill="#000000">inputStream</text>
</g>
<!-- 5&#45;&gt;3 -->
<g id="edge3" class="edge">
<title>5&#45;&gt;3</title>
<path fill="none" stroke="#000000" d="M124.0044,-167.2006C124.0044,-167.2006 124.0044,-134.872 124.0044,-134.872"/>
<polygon fill="#000000" stroke="#000000" points="124.0045,-134.872 128.5044,-124.872 124.0044,-129.872 124.0044,-124.872 124.0044,-124.872 124.0044,-124.872 124.0044,-129.872 119.5044,-124.872 124.0045,-134.872 124.0045,-134.872"/>
<polygon fill="#000000" stroke="#000000" points="124.0044,-177.2006 119.5045,-167.2006 124.0044,-172.2006 124.0045,-167.2006 124.0045,-167.2006 124.0045,-167.2006 124.0044,-172.2006 128.5045,-167.2006 124.0044,-177.2006 124.0044,-177.2006"/>
<text text-anchor="middle" x="129.0626" y="-147" font-family="Times,serif" font-size="14.00" fill="#000000">serverOK</text>
</g>
<!-- 12 -->
<g id="node5" class="node">
<title>12</title>
<polygon fill="none" stroke="#000000" stroke-dasharray="5,2" points="679.7601,-124.8 482.6603,-124.8 431.9568,-88.8 629.0566,-88.8 679.7601,-124.8"/>
<text text-anchor="middle" x="555.8585" y="-102.6" font-family="Times,serif" font-size="14.00" fill="#000000">th_openComRobot</text>
</g>
<!-- 5&#45;&gt;12 -->
<g id="edge9" class="edge">
<title>5&#45;&gt;12</title>
<path fill="none" stroke="#000000" d="M357.5073,-195C357.5073,-195 459.1245,-195 459.1245,-195 459.1245,-195 459.1245,-118.3309 459.1245,-118.3309"/>
<polygon fill="#000000" stroke="#000000" points="347.5073,-195 357.5073,-190.5001 352.5073,-195 357.5073,-195.0001 357.5073,-195.0001 357.5073,-195.0001 352.5073,-195 357.5072,-199.5001 347.5073,-195 347.5073,-195"/>
<polygon fill="#000000" stroke="#000000" points="459.1246,-118.3309 463.6245,-108.3308 459.1245,-113.3309 459.1245,-108.3309 459.1245,-108.3309 459.1245,-108.3309 459.1245,-113.3309 454.6245,-108.3309 459.1246,-118.3309 459.1246,-118.3309"/>
<text text-anchor="middle" x="394.193" y="-147" font-family="Times,serif" font-size="14.00" fill="#000000">openComRobot</text>
</g>
<!-- 37 -->
<g id="node13" class="node">
<title>37</title>
<polygon fill="none" stroke="#000000" stroke-dasharray="5,2" points="414.3489,-124.8 236.9926,-124.8 191.368,-88.8 368.7244,-88.8 414.3489,-124.8"/>
<text text-anchor="middle" x="302.8585" y="-102.6" font-family="Times,serif" font-size="14.00" fill="#000000">th_GérerCamera</text>
</g>
<!-- 5&#45;&gt;37 -->
<g id="edge19" class="edge">
<title>5&#45;&gt;37</title>
<path fill="none" stroke="#000000" d="M283.3941,-167.2006C283.3941,-167.2006 283.3941,-134.872 283.3941,-134.872"/>
<polygon fill="#000000" stroke="#000000" points="283.3941,-124.872 287.8941,-134.872 283.3941,-129.872 283.3941,-134.872 283.3941,-134.872 283.3941,-134.872 283.3941,-129.872 278.8941,-134.872 283.3941,-124.872 283.3941,-124.872"/>
<polygon fill="#000000" stroke="#000000" points="283.3941,-167.2006 278.8941,-177.2006 283.3941,-172.2006 283.3941,-177.2006 283.3941,-177.2006 283.3941,-177.2006 283.3941,-172.2006 287.8941,-177.2006 283.3941,-167.2006 283.3941,-167.2006"/>
<text text-anchor="middle" x="314.909" y="-147" font-family="Times,serif" font-size="14.00" fill="#000000">start</text>
</g>
<!-- 41 -->
<g id="node15" class="node">
<title>41</title>
<ellipse fill="#000000" stroke="#000000" cx="171.8585" cy="-106.8" rx="1.8" ry="1.8"/>
</g>
<!-- 5&#45;&gt;41 -->
<g id="edge21" class="edge">
<title>5&#45;&gt;41</title>
<path fill="none" stroke="#000000" d="M171.8585,-177.2006C171.8585,-177.2006 171.8585,-118.7582 171.8585,-118.7582"/>
<polygon fill="#000000" stroke="#000000" points="175.3586,-118.7582 171.8585,-108.7582 168.3586,-118.7582 175.3586,-118.7582"/>
<text text-anchor="middle" x="229.4055" y="-147" font-family="Times,serif" font-size="14.00" fill="#000000">comMoniteurLost</text>
</g>
<!-- 13 -->
<g id="node6" class="node">
<title>13</title>
<polygon fill="none" stroke="#000000" stroke-dasharray="5,2" points="706.8903,-302.4 558.8975,-302.4 520.8267,-266.4 668.8194,-266.4 706.8903,-302.4"/>
<text text-anchor="middle" x="613.8585" y="-280.2" font-family="Times,serif" font-size="14.00" fill="#000000">th_startRobot</text>
</g>
<!-- 9&#45;&gt;13 -->
<g id="edge8" class="edge">
<title>9&#45;&gt;13</title>
<path fill="none" stroke="#000000" d="M512.75,-373C512.75,-373 552.3416,-373 552.3416,-373 552.3416,-373 552.3416,-316.349 552.3416,-316.349"/>
<polygon fill="#000000" stroke="#000000" points="492.75,-373 502.7501,-368.5 497.75,-373 502.75,-373 502.75,-373 502.75,-373 497.75,-373 502.75,-377.5 492.75,-373 492.75,-373"/>
<polygon fill="#000000" stroke="#000000" points="512.7501,-369.5001 502.75,-373 512.75,-376.5001 512.7501,-369.5001"/>
<polygon fill="#000000" stroke="#000000" points="555.8416,-296.349 552.3416,-306.349 548.8416,-296.349 555.8416,-296.349"/>
<polygon fill="#000000" stroke="#000000" points="552.3417,-316.349 556.8416,-306.349 552.3416,-311.349 552.3416,-306.349 552.3416,-306.349 552.3416,-306.349 552.3416,-311.349 547.8416,-306.349 552.3417,-316.349 552.3417,-316.349"/>
<text text-anchor="middle" x="559.0142" y="-324.6" font-family="Times,serif" font-size="14.00" fill="#000000">messageTomMon</text>
</g>
<!-- 12&#45;&gt;9 -->
<g id="edge7" class="edge">
<title>12&#45;&gt;9</title>
<path fill="none" stroke="#000000" d="M486.3413,-145.1108C486.3413,-145.1108 486.3413,-347.7161 486.3413,-347.7161"/>
<polygon fill="#000000" stroke="#000000" points="486.3413,-367.7161 481.8413,-357.716 486.3413,-362.7161 486.3413,-357.7161 486.3413,-357.7161 486.3413,-357.7161 486.3413,-362.7161 490.8413,-357.7161 486.3413,-367.7161 486.3413,-367.7161"/>
<polygon fill="#000000" stroke="#000000" points="482.8413,-347.7161 486.3413,-357.7161 489.8413,-347.7161 482.8413,-347.7161"/>
<polygon fill="#000000" stroke="#000000" points="489.8413,-125.1107 486.3413,-135.1108 482.8413,-125.1108 489.8413,-125.1107"/>
<polygon fill="#000000" stroke="#000000" points="486.3413,-145.1108 490.8413,-135.1107 486.3413,-140.1108 486.3413,-135.1108 486.3413,-135.1108 486.3413,-135.1108 486.3413,-140.1108 481.8413,-135.1108 486.3413,-145.1108 486.3413,-145.1108"/>
<text text-anchor="middle" x="462.5675" y="-235.8" font-family="Times,serif" font-size="14.00" fill="#000000">messageTomMOn</text>
</g>
<!-- 13&#45;&gt;5 -->
<g id="edge6" class="edge">
<title>13&#45;&gt;5</title>
<path fill="none" stroke="#000000" d="M529.1552,-284C529.1552,-284 341.7919,-284 341.7919,-284 341.7919,-284 341.7919,-223.9165 341.7919,-223.9165"/>
<polygon fill="#000000" stroke="#000000" points="539.1552,-284 529.1553,-288.5001 534.1552,-284 529.1552,-284.0001 529.1552,-284.0001 529.1552,-284.0001 534.1552,-284 529.1552,-279.5001 539.1552,-284 539.1552,-284"/>
<polygon fill="#000000" stroke="#000000" points="341.792,-223.9165 346.2919,-213.9165 341.7919,-218.9165 341.7919,-213.9165 341.7919,-213.9165 341.7919,-213.9165 341.7919,-218.9165 337.2919,-213.9166 341.792,-223.9165 341.792,-223.9165"/>
<text text-anchor="middle" x="566.0226" y="-235.8" font-family="Times,serif" font-size="14.00" fill="#000000">startRobot</text>
</g>
<!-- 26 -->
<g id="node10" class="node">
<title>26</title>
<polygon fill="none" stroke="#000000" points="716.8585,-213.6 662.8585,-213.6 662.8585,-177.6 716.8585,-177.6 716.8585,-213.6"/>
<text text-anchor="middle" x="689.8585" y="-191.4" font-family="Times,serif" font-size="14.00" fill="#000000">Robot</text>
</g>
<!-- 13&#45;&gt;26 -->
<g id="edge14" class="edge">
<title>13&#45;&gt;26</title>
<path fill="none" stroke="#000000" d="M677.6137,-254.5576C677.6137,-254.5576 677.6137,-233.8011 677.6137,-233.8011"/>
<polygon fill="#000000" stroke="#000000" points="681.1137,-213.8011 677.6137,-223.8011 674.1137,-213.8011 681.1137,-213.8011"/>
<polygon fill="#000000" stroke="#000000" points="677.6137,-233.8011 682.1137,-223.8011 677.6137,-228.8011 677.6137,-223.8011 677.6137,-223.8011 677.6137,-223.8011 677.6137,-228.8011 673.1137,-223.8011 677.6137,-233.8011 677.6137,-233.8011"/>
<polygon fill="#000000" stroke="#000000" points="677.6137,-274.5576 673.1137,-264.5575 677.6137,-269.5576 677.6137,-264.5576 677.6137,-264.5576 677.6137,-264.5576 677.6137,-269.5576 682.1137,-264.5576 677.6137,-274.5576 677.6137,-274.5576"/>
<polygon fill="#000000" stroke="#000000" points="674.1137,-254.5576 677.6137,-264.5576 681.1137,-254.5576 674.1137,-254.5576"/>
<text text-anchor="middle" x="704.6264" y="-235.8" font-family="Times,serif" font-size="14.00" fill="#000000">ordre</text>
</g>
<!-- 19 -->
<g id="node7" class="node">
<title>19</title>
<polygon fill="none" stroke="#000000" stroke-dasharray="5,2" points="604.8265,-568.8 499.8861,-568.8 472.8904,-532.8 577.8308,-532.8 604.8265,-568.8"/>
<text text-anchor="middle" x="538.8585" y="-546.6" font-family="Times,serif" font-size="14.00" fill="#000000">th_move</text>
</g>
<!-- 19&#45;&gt;26 -->
<g id="edge16" class="edge">
<title>19&#45;&gt;26</title>
<path fill="none" stroke="#000000" d="M606.6261,-544C606.6261,-544 711.9913,-544 711.9913,-544 711.9913,-544 711.9913,-233.841 711.9913,-233.841"/>
<polygon fill="#000000" stroke="#000000" points="586.6261,-540.5 596.6261,-544 586.6261,-547.5 586.6261,-540.5"/>
<polygon fill="#000000" stroke="#000000" points="606.6261,-544.0001 596.6261,-539.5 601.6261,-544.0001 596.6261,-544 596.6261,-544 596.6261,-544 601.6261,-544.0001 596.6261,-548.5 606.6261,-544.0001 606.6261,-544.0001"/>
<polygon fill="#000000" stroke="#000000" points="711.9913,-213.841 716.4913,-223.8409 711.9913,-218.841 711.9913,-223.841 711.9913,-223.841 711.9913,-223.841 711.9913,-218.841 707.4913,-223.841 711.9913,-213.841 711.9913,-213.841"/>
<polygon fill="#000000" stroke="#000000" points="715.4914,-233.8409 711.9913,-223.841 708.4914,-233.841 715.4914,-233.8409"/>
<text text-anchor="middle" x="749.6264" y="-369" font-family="Times,serif" font-size="14.00" fill="#000000">ordre</text>
</g>
<!-- 33 -->
<g id="node11" class="node">
<title>33</title>
<polygon fill="none" stroke="#000000" stroke-dasharray="5,2" points="584.3224,-480 359.2849,-480 301.3945,-444 526.432,-444 584.3224,-480"/>
<text text-anchor="middle" x="442.8585" y="-457.8" font-family="Times,serif" font-size="14.00" fill="#000000">th_Fermer_comRobot</text>
</g>
<!-- 19&#45;&gt;33 -->
<g id="edge17" class="edge">
<title>19&#45;&gt;33</title>
<path fill="none" stroke="#000000" d="M528.6076,-522.4006C528.6076,-522.4006 528.6076,-490.072 528.6076,-490.072"/>
<polygon fill="#000000" stroke="#000000" points="528.6076,-480.072 533.1076,-490.072 528.6076,-485.072 528.6076,-490.072 528.6076,-490.072 528.6076,-490.072 528.6076,-485.072 524.1076,-490.072 528.6076,-480.072 528.6076,-480.072"/>
<polygon fill="#000000" stroke="#000000" points="528.6076,-522.4006 524.1076,-532.4006 528.6076,-527.4006 528.6076,-532.4006 528.6076,-532.4006 528.6076,-532.4006 528.6076,-527.4006 533.1076,-532.4006 528.6076,-522.4006 528.6076,-522.4006"/>
<text text-anchor="middle" x="546.064" y="-502.2" font-family="Times,serif" font-size="14.00" fill="#000000">Perte communication robot</text>
</g>
<!-- 20 -->
<g id="node8" class="node">
<title>20</title>
<polygon fill="none" stroke="#000000" points="290.8585,-641.8 236.8585,-641.8 236.8585,-605.8 290.8585,-605.8 290.8585,-641.8"/>
<text text-anchor="middle" x="263.8585" y="-619.6" font-family="Times,serif" font-size="14.00" fill="#000000">move</text>
</g>
<!-- 20&#45;&gt;5 -->
<g id="edge10" class="edge">
<title>20&#45;&gt;5</title>
<path fill="none" stroke="#000000" d="M276.8206,-605.6743C276.8206,-605.6743 276.8206,-223.9698 276.8206,-223.9698"/>
<polygon fill="none" stroke="#000000" points="280.3207,-223.9697 276.8206,-213.9698 273.3207,-223.9698 280.3207,-223.9697"/>
</g>
<!-- 20&#45;&gt;19 -->
<g id="edge11" class="edge">
<title>20&#45;&gt;19</title>
<path fill="none" stroke="#000000" d="M283.8395,-605.5573C283.8395,-583.703 283.8395,-550 283.8395,-550 283.8395,-550 475.7086,-550 475.7086,-550"/>
<polygon fill="none" stroke="#000000" points="475.7086,-553.5001 485.7086,-550 475.7085,-546.5001 475.7086,-553.5001"/>
</g>
<!-- 23 -->
<g id="node9" class="node">
<title>23</title>
<polygon fill="none" stroke="#000000" points="687.5635,-641.8 602.1534,-641.8 602.1534,-605.8 687.5635,-605.8 687.5635,-641.8"/>
<text text-anchor="middle" x="644.8585" y="-619.6" font-family="Times,serif" font-size="14.00" fill="#000000">robotStarted</text>
</g>
<!-- 23&#45;&gt;13 -->
<g id="edge12" class="edge">
<title>23&#45;&gt;13</title>
<path fill="none" stroke="#000000" d="M659.8379,-605.5524C659.8379,-605.5524 659.8379,-312.7378 659.8379,-312.7378"/>
<polygon fill="none" stroke="#000000" points="663.338,-312.7378 659.8379,-302.7378 656.338,-312.7379 663.338,-312.7378"/>
</g>
<!-- 23&#45;&gt;19 -->
<g id="edge13" class="edge">
<title>23&#45;&gt;19</title>
<path fill="none" stroke="#000000" d="M632.215,-605.6308C632.215,-585.5477 632.215,-556 632.215,-556 632.215,-556 605.318,-556 605.318,-556"/>
<polygon fill="none" stroke="#000000" points="605.3181,-552.5001 595.318,-556 605.318,-559.5001 605.3181,-552.5001"/>
</g>
<!-- 26&#45;&gt;13 -->
<g id="edge15" class="edge">
<title>26&#45;&gt;13</title>
<path fill="none" stroke="#000000" d="M692.3689,-233.9994C692.3689,-233.9994 692.3689,-264.2719 692.3689,-264.2719"/>
<polygon fill="#000000" stroke="#000000" points="688.8689,-284.2719 692.3689,-274.2719 695.8689,-284.2719 688.8689,-284.2719"/>
<polygon fill="#000000" stroke="#000000" points="692.3689,-264.2719 687.8689,-274.2719 692.3689,-269.2719 692.3689,-274.2719 692.3689,-274.2719 692.3689,-274.2719 692.3689,-269.2719 696.8689,-274.2719 692.3689,-264.2719 692.3689,-264.2719"/>
<polygon fill="#000000" stroke="#000000" points="692.3689,-213.9994 696.8689,-223.9994 692.3689,-218.9994 692.3689,-223.9994 692.3689,-223.9994 692.3689,-223.9994 692.3689,-218.9994 687.8689,-223.9994 692.3689,-213.9994 692.3689,-213.9994"/>
<polygon fill="#000000" stroke="#000000" points="695.8689,-233.9994 692.3689,-223.9994 688.8689,-233.9994 695.8689,-233.9994"/>
<text text-anchor="middle" x="642.348" y="-235.8" font-family="Times,serif" font-size="14.00" fill="#000000">response</text>
</g>
<!-- 33&#45;&gt;9 -->
<g id="edge18" class="edge">
<title>33&#45;&gt;9</title>
<path fill="none" stroke="#000000" d="M410.8585,-433.6006C410.8585,-433.6006 410.8585,-401.272 410.8585,-401.272"/>
<polygon fill="#000000" stroke="#000000" points="410.8585,-391.272 415.3585,-401.272 410.8585,-396.272 410.8585,-401.272 410.8585,-401.272 410.8585,-401.272 410.8585,-396.272 406.3585,-401.272 410.8585,-391.272 410.8585,-391.272"/>
<polygon fill="#000000" stroke="#000000" points="410.8585,-433.6006 406.3585,-443.6006 410.8585,-438.6006 410.8585,-443.6006 410.8585,-443.6006 410.8585,-443.6006 410.8585,-438.6006 415.3585,-443.6006 410.8585,-433.6006 410.8585,-433.6006"/>
<text text-anchor="middle" x="462.5668" y="-413.4" font-family="Times,serif" font-size="14.00" fill="#000000">retourEtatInit</text>
</g>
<!-- 36 -->
<g id="node12" class="node">
<title>36</title>
<polygon fill="none" stroke="#000000" points="766.3567,-641.8 705.3602,-641.8 705.3602,-605.8 766.3567,-605.8 766.3567,-641.8"/>
<text text-anchor="middle" x="735.8585" y="-619.6" font-family="Times,serif" font-size="14.00" fill="#000000">Caméra</text>
</g>
<!-- 39 -->
<g id="node14" class="node">
<title>39</title>
<ellipse fill="none" stroke="#000000" cx="302.8585" cy="-18" rx="27" ry="18"/>
<text text-anchor="middle" x="302.8585" y="-13.8" font-family="Times,serif" font-size="14.00" fill="#000000">39</text>
</g>
<!-- 37&#45;&gt;39 -->
<g id="edge20" class="edge">
<title>37&#45;&gt;39</title>
<path fill="none" stroke="#000000" d="M302.8585,-78.4006C302.8585,-78.4006 302.8585,-46.072 302.8585,-46.072"/>
<polygon fill="#000000" stroke="#000000" points="302.8585,-36.072 307.3585,-46.072 302.8585,-41.072 302.8585,-46.072 302.8585,-46.072 302.8585,-46.072 302.8585,-41.072 298.3585,-46.072 302.8585,-36.072 302.8585,-36.072"/>
<polygon fill="#000000" stroke="#000000" points="302.8585,-78.4006 298.3585,-88.4006 302.8585,-83.4006 302.8585,-88.4006 302.8585,-88.4006 302.8585,-88.4006 302.8585,-83.4006 307.3585,-88.4006 302.8585,-78.4006 302.8585,-78.4006"/>
<text text-anchor="middle" x="314.909" y="-58.2" font-family="Times,serif" font-size="14.00" fill="#000000">start</text>
</g>
</g>
</svg>
