<?xml version="1.0" encoding="UTF-8" standalone="no"?>
<!DOCTYPE svg PUBLIC "-//W3C//DTD SVG 1.1//EN"
 "http://www.w3.org/Graphics/SVG/1.1/DTD/svg11.dtd">
<!-- Generated by graphviz version 2.40.1 (20161225.0304)
 -->
<!-- Title: G Pages: 1 -->
<svg width="1133pt" height="667pt"
 viewBox="0.00 0.00 1133.39 666.60" xmlns="http://www.w3.org/2000/svg" xmlns:xlink="http://www.w3.org/1999/xlink">
<g id="graph0" class="graph" transform="scale(1 1) rotate(0) translate(4 662.6)">
<title>G</title>
<polygon fill="#ffffff" stroke="transparent" points="-4,4 -4,-662.6 1129.3943,-662.6 1129.3943,4 -4,4"/>
<!-- 2 -->
<g id="node1" class="node">
<title>2</title>
<polygon fill="none" stroke="#000000" points="257.745,-496.8 195.972,-496.8 195.972,-460.8 257.745,-460.8 257.745,-496.8"/>
<text text-anchor="middle" x="226.8585" y="-474.6" font-family="Times,serif" font-size="14.00" fill="#000000">Monitor</text>
</g>
<!-- 9 -->
<g id="node4" class="node">
<title>9</title>
<polygon fill="none" stroke="#000000" stroke-dasharray="5,2" points="817.7583,-408 654.0677,-408 611.9587,-372 775.6492,-372 817.7583,-408"/>
<text text-anchor="middle" x="714.8585" y="-385.8" font-family="Times,serif" font-size="14.00" fill="#000000">th_sendToMon</text>
</g>
<!-- 2&#45;&gt;9 -->
<g id="edge5" class="edge">
<title>2&#45;&gt;9</title>
<path fill="none" stroke="#000000" d="M237.1729,-440.4652C237.1729,-440.4652 237.1729,-398 237.1729,-398 237.1729,-398 622.3083,-398 622.3083,-398"/>
<polygon fill="#000000" stroke="#000000" points="233.6729,-460.4652 237.1729,-450.4652 240.6729,-460.4652 233.6729,-460.4652"/>
<polygon fill="#000000" stroke="#000000" points="237.173,-440.4652 232.6729,-450.4652 237.1729,-445.4652 237.1729,-450.4652 237.1729,-450.4652 237.1729,-450.4652 237.1729,-445.4652 241.6729,-450.4653 237.173,-440.4652 237.173,-440.4652"/>
<polygon fill="#000000" stroke="#000000" points="642.3083,-398 632.3083,-402.5 637.3083,-398 632.3083,-398 632.3083,-398 632.3083,-398 637.3083,-398 632.3083,-393.5 642.3083,-398 642.3083,-398"/>
<polygon fill="#000000" stroke="#000000" points="622.3083,-401.5001 632.3083,-398 622.3083,-394.5001 622.3083,-401.5001"/>
<text text-anchor="middle" x="511.5759" y="-430.2" font-family="Times,serif" font-size="14.00" fill="#000000">outputStream</text>
</g>
<!-- 3 -->
<g id="node2" class="node">
<title>3</title>
<polygon fill="none" stroke="#000000" stroke-dasharray="5,2" points="137.5757,-124.8 28.262,-124.8 .1412,-88.8 109.455,-88.8 137.5757,-124.8"/>
<text text-anchor="middle" x="68.8585" y="-102.6" font-family="Times,serif" font-size="14.00" fill="#000000">th_server</text>
</g>
<!-- 3&#45;&gt;2 -->
<g id="edge1" class="edge">
<title>3&#45;&gt;2</title>
<path fill="none" stroke="#000000" d="M45.9056,-134.955C45.9056,-134.955 45.9056,-478 45.9056,-478 45.9056,-478 185.7516,-478 185.7516,-478"/>
<polygon fill="#000000" stroke="#000000" points="45.9056,-124.955 50.4057,-134.955 45.9057,-129.955 45.9057,-134.955 45.9057,-134.955 45.9057,-134.955 45.9057,-129.955 41.4057,-134.9551 45.9056,-124.955 45.9056,-124.955"/>
<polygon fill="#000000" stroke="#000000" points="185.7516,-478.0001 195.7516,-482.5 190.7516,-478 195.7516,-478 195.7516,-478 195.7516,-478 190.7516,-478 195.7515,-473.5 185.7516,-478.0001 185.7516,-478.0001"/>
<text text-anchor="middle" x="87.3922" y="-297" font-family="Times,serif" font-size="14.00" fill="#000000">connnectServer</text>
</g>
<!-- 3&#45;&gt;9 -->
<g id="edge4" class="edge">
<title>3&#45;&gt;9</title>
<path fill="none" stroke="#000000" d="M91.8113,-134.8822C91.8113,-134.8822 91.8113,-389 91.8113,-389 91.8113,-389 621.8006,-389 621.8006,-389"/>
<polygon fill="#000000" stroke="#000000" points="91.8113,-124.8822 96.3114,-134.8821 91.8113,-129.8822 91.8114,-134.8822 91.8114,-134.8822 91.8114,-134.8822 91.8113,-129.8822 87.3114,-134.8822 91.8113,-124.8822 91.8113,-124.8822"/>
<polygon fill="#000000" stroke="#000000" points="621.8006,-389.0001 631.8006,-393.5 626.8006,-389 631.8006,-389 631.8006,-389 631.8006,-389 626.8006,-389 631.8005,-384.5 621.8006,-389.0001 621.8006,-389.0001"/>
<text text-anchor="middle" x="109.0626" y="-244.2" font-family="Times,serif" font-size="14.00" fill="#000000">serverOK</text>
</g>
<!-- 5 -->
<g id="node3" class="node">
<title>5</title>
<polygon fill="none" stroke="#000000" stroke-dasharray="5,2" points="414.4915,-213.6 203.502,-213.6 149.2254,-177.6 360.2149,-177.6 414.4915,-213.6"/>
<text text-anchor="middle" x="281.8585" y="-191.4" font-family="Times,serif" font-size="14.00" fill="#000000">th_receiveFromMon</text>
</g>
<!-- 5&#45;&gt;2 -->
<g id="edge2" class="edge">
<title>5&#45;&gt;2</title>
<path fill="none" stroke="#000000" d="M216.5441,-233.7462C216.5441,-233.7462 216.5441,-440.4384 216.5441,-440.4384"/>
<polygon fill="#000000" stroke="#000000" points="213.0441,-460.4384 216.5441,-450.4384 220.0441,-460.4384 213.0441,-460.4384"/>
<polygon fill="#000000" stroke="#000000" points="216.5441,-440.4384 212.0441,-450.4384 216.5441,-445.4384 216.5441,-450.4384 216.5441,-450.4384 216.5441,-450.4384 216.5441,-445.4384 221.0441,-450.4384 216.5441,-440.4384 216.5441,-440.4384"/>
<polygon fill="#000000" stroke="#000000" points="216.5441,-213.7462 221.0441,-223.7462 216.5441,-218.7462 216.5441,-223.7462 216.5441,-223.7462 216.5441,-223.7462 216.5441,-218.7462 212.0441,-223.7462 216.5441,-213.7462 216.5441,-213.7462"/>
<polygon fill="#000000" stroke="#000000" points="220.0441,-233.7462 216.5441,-223.7462 213.0441,-233.7462 220.0441,-233.7462"/>
<text text-anchor="middle" x="261.0759" y="-341.4" font-family="Times,serif" font-size="14.00" fill="#000000">inputStream</text>
</g>
<!-- 5&#45;&gt;3 -->
<g id="edge3" class="edge">
<title>5&#45;&gt;3</title>
<path fill="none" stroke="#000000" d="M163.1752,-167.5375C163.1752,-167.5375 163.1752,-116 163.1752,-116 163.1752,-116 140.7167,-116 140.7167,-116"/>
<polygon fill="#000000" stroke="#000000" points="163.1753,-167.5375 158.6752,-177.5375 163.1753,-172.5375 163.1752,-177.5375 163.1752,-177.5375 163.1752,-177.5375 163.1753,-172.5375 167.6752,-177.5376 163.1753,-167.5375 163.1753,-167.5375"/>
<polygon fill="#000000" stroke="#000000" points="130.7167,-116 140.7168,-111.5001 135.7167,-116 140.7167,-116.0001 140.7167,-116.0001 140.7167,-116.0001 135.7167,-116 140.7167,-120.5001 130.7167,-116 130.7167,-116"/>
<text text-anchor="middle" x="129.0626" y="-147" font-family="Times,serif" font-size="14.00" fill="#000000">serverOK</text>
</g>
<!-- 12 -->
<g id="node5" class="node">
<title>12</title>
<polygon fill="none" stroke="#000000" stroke-dasharray="5,2" points="492.7601,-124.8 295.6603,-124.8 244.9568,-88.8 442.0566,-88.8 492.7601,-124.8"/>
<text text-anchor="middle" x="368.8585" y="-102.6" font-family="Times,serif" font-size="14.00" fill="#000000">th_openComRobot</text>
</g>
<!-- 5&#45;&gt;12 -->
<g id="edge9" class="edge">
<title>5&#45;&gt;12</title>
<path fill="none" stroke="#000000" d="M329.6663,-167.2006C329.6663,-167.2006 329.6663,-134.872 329.6663,-134.872"/>
<polygon fill="#000000" stroke="#000000" points="329.6663,-124.872 334.1663,-134.872 329.6663,-129.872 329.6663,-134.872 329.6663,-134.872 329.6663,-134.872 329.6663,-129.872 325.1663,-134.872 329.6663,-124.872 329.6663,-124.872"/>
<polygon fill="#000000" stroke="#000000" points="329.6663,-167.2006 325.1663,-177.2006 329.6663,-172.2006 329.6663,-177.2006 329.6663,-177.2006 329.6663,-177.2006 329.6663,-172.2006 334.1663,-177.2006 329.6663,-167.2006 329.6663,-167.2006"/>
<text text-anchor="middle" x="347.193" y="-147" font-family="Times,serif" font-size="14.00" fill="#000000">openComRobot</text>
</g>
<!-- 37 -->
<g id="node13" class="node">
<title>37</title>
<polygon fill="none" stroke="#000000" stroke-dasharray="5,2" points="737.3489,-124.8 559.9926,-124.8 514.368,-88.8 691.7244,-88.8 737.3489,-124.8"/>
<text text-anchor="middle" x="625.8585" y="-102.6" font-family="Times,serif" font-size="14.00" fill="#000000">th_GérerCamera</text>
</g>
<!-- 5&#45;&gt;37 -->
<g id="edge24" class="edge">
<title>5&#45;&gt;37</title>
<path fill="none" stroke="#000000" d="M402.8825,-199C402.8825,-199 585.8108,-199 585.8108,-199 585.8108,-199 585.8108,-135.0158 585.8108,-135.0158"/>
<polygon fill="#000000" stroke="#000000" points="402.8825,-199.0001 392.8825,-194.5 397.8825,-199 392.8825,-199 392.8825,-199 392.8825,-199 397.8825,-199 392.8824,-203.5 402.8825,-199.0001 402.8825,-199.0001"/>
<polygon fill="#000000" stroke="#000000" points="585.8108,-125.0158 590.3109,-135.0157 585.8109,-130.0158 585.8109,-135.0158 585.8109,-135.0158 585.8109,-135.0158 585.8109,-130.0158 581.3109,-135.0158 585.8108,-125.0158 585.8108,-125.0158"/>
<text text-anchor="middle" x="512.0051" y="-147" font-family="Times,serif" font-size="14.00" fill="#000000">areneOK/PASOK</text>
</g>
<!-- 5&#45;&gt;37 -->
<g id="edge28" class="edge">
<title>5&#45;&gt;37</title>
<path fill="none" stroke="#000000" d="M392.2029,-192C392.2029,-192 561.995,-192 561.995,-192 561.995,-192 561.995,-134.8687 561.995,-134.8687"/>
<polygon fill="#000000" stroke="#000000" points="392.2029,-192.0001 382.203,-187.5 387.2029,-192 382.2029,-192 382.2029,-192 382.2029,-192 387.2029,-192 382.2029,-196.5 392.2029,-192.0001 392.2029,-192.0001"/>
<polygon fill="#000000" stroke="#000000" points="561.995,-124.8687 566.4951,-134.8687 561.995,-129.8687 561.9951,-134.8687 561.9951,-134.8687 561.9951,-134.8687 561.995,-129.8687 557.4951,-134.8688 561.995,-124.8687 561.995,-124.8687"/>
<text text-anchor="middle" x="606.2393" y="-147" font-family="Times,serif" font-size="14.00" fill="#000000">calcPos</text>
</g>
<!-- 41 -->
<g id="node15" class="node">
<title>41</title>
<ellipse fill="#000000" stroke="#000000" cx="178.8585" cy="-106.8" rx="1.8" ry="1.8"/>
</g>
<!-- 5&#45;&gt;41 -->
<g id="edge27" class="edge">
<title>5&#45;&gt;41</title>
<path fill="none" stroke="#000000" d="M178.8585,-177.2006C178.8585,-177.2006 178.8585,-118.7582 178.8585,-118.7582"/>
<polygon fill="#000000" stroke="#000000" points="182.3586,-118.7582 178.8585,-108.7582 175.3586,-118.7582 182.3586,-118.7582"/>
<text text-anchor="middle" x="229.4055" y="-147" font-family="Times,serif" font-size="14.00" fill="#000000">comMoniteurLost</text>
</g>
<!-- 13 -->
<g id="node6" class="node">
<title>13</title>
<polygon fill="none" stroke="#000000" stroke-dasharray="5,2" points="1067.8903,-319.2 919.8975,-319.2 881.8267,-283.2 1029.8194,-283.2 1067.8903,-319.2"/>
<text text-anchor="middle" x="974.8585" y="-297" font-family="Times,serif" font-size="14.00" fill="#000000">th_startRobot</text>
</g>
<!-- 9&#45;&gt;13 -->
<g id="edge8" class="edge">
<title>9&#45;&gt;13</title>
<path fill="none" stroke="#000000" d="M815.5625,-389C815.5625,-389 886.8416,-389 886.8416,-389 886.8416,-389 886.8416,-321.2636 886.8416,-321.2636"/>
<polygon fill="#000000" stroke="#000000" points="795.5625,-389 805.5625,-384.5 800.5625,-389 805.5625,-389 805.5625,-389 805.5625,-389 800.5625,-389 805.5625,-393.5 795.5625,-389 795.5625,-389"/>
<polygon fill="#000000" stroke="#000000" points="815.5625,-385.5001 805.5625,-389 815.5625,-392.5001 815.5625,-385.5001"/>
<polygon fill="#000000" stroke="#000000" points="890.3416,-301.2636 886.8416,-311.2636 883.3416,-301.2637 890.3416,-301.2636"/>
<polygon fill="#000000" stroke="#000000" points="886.8417,-321.2636 891.3416,-311.2636 886.8416,-316.2636 886.8416,-311.2636 886.8416,-311.2636 886.8416,-311.2636 886.8416,-316.2636 882.3416,-311.2637 886.8417,-321.2636 886.8417,-321.2636"/>
<text text-anchor="middle" x="961.0142" y="-341.4" font-family="Times,serif" font-size="14.00" fill="#000000">messageTomMon</text>
</g>
<!-- 9&#45;&gt;37 -->
<g id="edge26" class="edge">
<title>9&#45;&gt;37</title>
<path fill="none" stroke="#000000" d="M643.4575,-351.8538C643.4575,-351.8538 643.4575,-145.1616 643.4575,-145.1616"/>
<polygon fill="#000000" stroke="#000000" points="646.9575,-125.1616 643.4575,-135.1616 639.9575,-125.1616 646.9575,-125.1616"/>
<polygon fill="#000000" stroke="#000000" points="643.4575,-145.1616 647.9575,-135.1616 643.4575,-140.1616 643.4575,-135.1616 643.4575,-135.1616 643.4575,-135.1616 643.4575,-140.1616 638.9575,-135.1616 643.4575,-145.1616 643.4575,-145.1616"/>
<polygon fill="#000000" stroke="#000000" points="643.4575,-371.8538 638.9575,-361.8538 643.4575,-366.8538 643.4575,-361.8538 643.4575,-361.8538 643.4575,-361.8538 643.4575,-366.8538 647.9575,-361.8538 643.4575,-371.8538 643.4575,-371.8538"/>
<polygon fill="#000000" stroke="#000000" points="639.9575,-351.8538 643.4575,-361.8538 646.9575,-351.8538 639.9575,-351.8538"/>
<text text-anchor="middle" x="900.9637" y="-244.2" font-family="Times,serif" font-size="14.00" fill="#000000">image</text>
</g>
<!-- 12&#45;&gt;9 -->
<g id="edge7" class="edge">
<title>12&#45;&gt;9</title>
<path fill="none" stroke="#000000" d="M467.3339,-145.1496C467.3339,-145.1496 467.3339,-380 467.3339,-380 467.3339,-380 601.28,-380 601.28,-380"/>
<polygon fill="#000000" stroke="#000000" points="467.3339,-125.1496 471.8339,-135.1496 467.3339,-130.1496 467.3339,-135.1496 467.3339,-135.1496 467.3339,-135.1496 467.3339,-130.1496 462.8339,-135.1497 467.3339,-125.1496 467.3339,-125.1496"/>
<polygon fill="#000000" stroke="#000000" points="470.834,-145.1496 467.3339,-135.1496 463.834,-145.1497 470.834,-145.1496"/>
<polygon fill="#000000" stroke="#000000" points="621.28,-383.5 611.28,-380 621.28,-376.5 621.28,-383.5"/>
<polygon fill="#000000" stroke="#000000" points="601.28,-380.0001 611.2801,-384.5 606.28,-380.0001 611.28,-380 611.28,-380 611.28,-380 606.28,-380.0001 611.28,-375.5 601.28,-380.0001 601.28,-380.0001"/>
<text text-anchor="middle" x="593.5675" y="-244.2" font-family="Times,serif" font-size="14.00" fill="#000000">messageTomMOn</text>
</g>
<!-- 13&#45;&gt;5 -->
<g id="edge6" class="edge">
<title>13&#45;&gt;5</title>
<path fill="none" stroke="#000000" d="M879.965,-291C879.965,-291 338.0417,-291 338.0417,-291 338.0417,-291 338.0417,-223.9941 338.0417,-223.9941"/>
<polygon fill="#000000" stroke="#000000" points="889.965,-291 879.965,-295.5001 884.965,-291 879.965,-291.0001 879.965,-291.0001 879.965,-291.0001 884.965,-291 879.9649,-286.5001 889.965,-291 889.965,-291"/>
<polygon fill="#000000" stroke="#000000" points="338.0416,-223.9941 342.5417,-213.9941 338.0417,-218.9941 338.0417,-213.9941 338.0417,-213.9941 338.0417,-213.9941 338.0417,-218.9941 333.5417,-213.994 338.0416,-223.9941 338.0416,-223.9941"/>
<text text-anchor="middle" x="451.0938" y="-244.2" font-family="Times,serif" font-size="14.00" fill="#000000">startRobot (WD ou non)</text>
</g>
<!-- 26 -->
<g id="node10" class="node">
<title>26</title>
<polygon fill="none" stroke="#000000" points="1073.8585,-213.6 1019.8585,-213.6 1019.8585,-177.6 1073.8585,-177.6 1073.8585,-213.6"/>
<text text-anchor="middle" x="1046.8585" y="-191.4" font-family="Times,serif" font-size="14.00" fill="#000000">Robot</text>
</g>
<!-- 13&#45;&gt;26 -->
<g id="edge14" class="edge">
<title>13&#45;&gt;26</title>
<path fill="none" stroke="#000000" d="M1035.947,-268.6716C1035.947,-268.6716 1035.947,-233.7646 1035.947,-233.7646"/>
<polygon fill="#000000" stroke="#000000" points="1039.447,-213.7645 1035.947,-223.7646 1032.447,-213.7646 1039.447,-213.7645"/>
<polygon fill="#000000" stroke="#000000" points="1035.947,-233.7646 1040.447,-223.7645 1035.947,-228.7646 1035.947,-223.7646 1035.947,-223.7646 1035.947,-223.7646 1035.947,-228.7646 1031.447,-223.7646 1035.947,-233.7646 1035.947,-233.7646"/>
<polygon fill="#000000" stroke="#000000" points="1035.947,-288.6716 1031.447,-278.6716 1035.947,-283.6716 1035.947,-278.6716 1035.947,-278.6716 1035.947,-278.6716 1035.947,-283.6716 1040.447,-278.6716 1035.947,-288.6716 1035.947,-288.6716"/>
<polygon fill="#000000" stroke="#000000" points="1032.447,-268.6716 1035.947,-278.6716 1039.447,-268.6716 1032.447,-268.6716"/>
<text text-anchor="middle" x="1061.6264" y="-244.2" font-family="Times,serif" font-size="14.00" fill="#000000">ordre</text>
</g>
<!-- 19 -->
<g id="node7" class="node">
<title>19</title>
<polygon fill="none" stroke="#000000" stroke-dasharray="5,2" points="972.8265,-585.6 867.8861,-585.6 840.8904,-549.6 945.8308,-549.6 972.8265,-585.6"/>
<text text-anchor="middle" x="906.8585" y="-563.4" font-family="Times,serif" font-size="14.00" fill="#000000">th_move</text>
</g>
<!-- 19&#45;&gt;26 -->
<g id="edge16" class="edge">
<title>19&#45;&gt;26</title>
<path fill="none" stroke="#000000" d="M974.5006,-561C974.5006,-561 1091.8585,-561 1091.8585,-561 1091.8585,-561 1091.8585,-195 1091.8585,-195 1091.8585,-195 1090.0799,-195 1090.0799,-195"/>
<polygon fill="#000000" stroke="#000000" points="954.5006,-557.5 964.5006,-561 954.5005,-564.5 954.5006,-557.5"/>
<polygon fill="#000000" stroke="#000000" points="974.5006,-561.0001 964.5006,-556.5 969.5006,-561.0001 964.5006,-561 964.5006,-561 964.5006,-561 969.5006,-561.0001 964.5005,-565.5 974.5006,-561.0001 974.5006,-561.0001"/>
<polygon fill="#000000" stroke="#000000" points="1074.0733,-195 1084.0733,-190.5001 1079.0733,-195 1084.0733,-195.0001 1084.0733,-195.0001 1084.0733,-195.0001 1079.0733,-195 1084.0732,-199.5001 1074.0733,-195 1074.0733,-195"/>
<polygon fill="#000000" stroke="#000000" points="1094.0733,-191.5001 1084.0733,-195.0001 1094.0733,-198.5001 1094.0733,-191.5001"/>
<text text-anchor="middle" x="1110.6264" y="-385.8" font-family="Times,serif" font-size="14.00" fill="#000000">ordre</text>
</g>
<!-- 33 -->
<g id="node11" class="node">
<title>33</title>
<polygon fill="none" stroke="#000000" stroke-dasharray="5,2" points="892.3224,-496.8 667.2849,-496.8 609.3945,-460.8 834.432,-460.8 892.3224,-496.8"/>
<text text-anchor="middle" x="750.8585" y="-474.6" font-family="Times,serif" font-size="14.00" fill="#000000">th_Fermer_comRobot</text>
</g>
<!-- 19&#45;&gt;33 -->
<g id="edge17" class="edge">
<title>19&#45;&gt;33</title>
<path fill="none" stroke="#000000" d="M866.6076,-539.2006C866.6076,-539.2006 866.6076,-506.872 866.6076,-506.872"/>
<polygon fill="#000000" stroke="#000000" points="866.6076,-496.872 871.1076,-506.872 866.6076,-501.872 866.6076,-506.872 866.6076,-506.872 866.6076,-506.872 866.6076,-501.872 862.1076,-506.872 866.6076,-496.872 866.6076,-496.872"/>
<polygon fill="#000000" stroke="#000000" points="866.6076,-539.2006 862.1076,-549.2006 866.6076,-544.2006 866.6076,-549.2006 866.6076,-549.2006 866.6076,-549.2006 866.6076,-544.2006 871.1076,-549.2006 866.6076,-539.2006 866.6076,-539.2006"/>
<text text-anchor="middle" x="839.064" y="-519" font-family="Times,serif" font-size="14.00" fill="#000000">Perte communication robot</text>
</g>
<!-- 20 -->
<g id="node8" class="node">
<title>20</title>
<polygon fill="none" stroke="#000000" points="495.8585,-658.6 441.8585,-658.6 441.8585,-622.6 495.8585,-622.6 495.8585,-658.6"/>
<text text-anchor="middle" x="468.8585" y="-636.4" font-family="Times,serif" font-size="14.00" fill="#000000">move</text>
</g>
<!-- 20&#45;&gt;5 -->
<g id="edge10" class="edge">
<title>20&#45;&gt;5</title>
<path fill="none" stroke="#000000" d="M454.5962,-622.4791C454.5962,-540.2277 454.5962,-206 454.5962,-206 454.5962,-206 413.2368,-206 413.2368,-206"/>
<polygon fill="none" stroke="#000000" points="413.2369,-202.5001 403.2368,-206 413.2368,-209.5001 413.2369,-202.5001"/>
</g>
<!-- 20&#45;&gt;19 -->
<g id="edge11" class="edge">
<title>20&#45;&gt;19</title>
<path fill="none" stroke="#000000" d="M480.0716,-622.4067C480.0716,-600.6117 480.0716,-567 480.0716,-567 480.0716,-567 843.6685,-567 843.6685,-567"/>
<polygon fill="none" stroke="#000000" points="843.6686,-570.5001 853.6685,-567 843.6685,-563.5001 843.6686,-570.5001"/>
</g>
<!-- 23 -->
<g id="node9" class="node">
<title>23</title>
<polygon fill="none" stroke="#000000" points="1068.5635,-658.6 983.1534,-658.6 983.1534,-622.6 1068.5635,-622.6 1068.5635,-658.6"/>
<text text-anchor="middle" x="1025.8585" y="-636.4" font-family="Times,serif" font-size="14.00" fill="#000000">robotStarted</text>
</g>
<!-- 23&#45;&gt;13 -->
<g id="edge12" class="edge">
<title>23&#45;&gt;13</title>
<path fill="none" stroke="#000000" d="M1039.8347,-622.3524C1039.8347,-622.3524 1039.8347,-329.5378 1039.8347,-329.5378"/>
<polygon fill="none" stroke="#000000" points="1043.3348,-329.5378 1039.8347,-319.5378 1036.3348,-329.5379 1043.3348,-329.5378"/>
</g>
<!-- 23&#45;&gt;19 -->
<g id="edge13" class="edge">
<title>23&#45;&gt;19</title>
<path fill="none" stroke="#000000" d="M1011.5454,-622.4844C1011.5454,-602.4605 1011.5454,-573 1011.5454,-573 1011.5454,-573 973.4915,-573 973.4915,-573"/>
<polygon fill="none" stroke="#000000" points="973.4915,-569.5001 963.4915,-573 973.4914,-576.5001 973.4915,-569.5001"/>
</g>
<!-- 26&#45;&gt;13 -->
<g id="edge15" class="edge">
<title>26&#45;&gt;13</title>
<path fill="none" stroke="#000000" d="M1052.0355,-233.9941C1052.0355,-233.9941 1052.0355,-281.0357 1052.0355,-281.0357"/>
<polygon fill="#000000" stroke="#000000" points="1048.5355,-301.0357 1052.0356,-291.0357 1055.5355,-301.0357 1048.5355,-301.0357"/>
<polygon fill="#000000" stroke="#000000" points="1052.0356,-281.0357 1047.5356,-291.0357 1052.0356,-286.0357 1052.0356,-291.0357 1052.0356,-291.0357 1052.0356,-291.0357 1052.0356,-286.0357 1056.5356,-291.0357 1052.0356,-281.0357 1052.0356,-281.0357"/>
<polygon fill="#000000" stroke="#000000" points="1052.0355,-213.9941 1056.5356,-223.9941 1052.0355,-218.9941 1052.0356,-223.9941 1052.0356,-223.9941 1052.0356,-223.9941 1052.0355,-218.9941 1047.5356,-223.9941 1052.0355,-213.9941 1052.0355,-213.9941"/>
<polygon fill="#000000" stroke="#000000" points="1055.5356,-233.9941 1052.0356,-223.9941 1048.5356,-233.9941 1055.5356,-233.9941"/>
<text text-anchor="middle" x="999.348" y="-244.2" font-family="Times,serif" font-size="14.00" fill="#000000">response</text>
</g>
<!-- 33&#45;&gt;9 -->
<g id="edge18" class="edge">
<title>33&#45;&gt;9</title>
<path fill="none" stroke="#000000" d="M714.8585,-450.4006C714.8585,-450.4006 714.8585,-418.072 714.8585,-418.072"/>
<polygon fill="#000000" stroke="#000000" points="714.8585,-408.072 719.3585,-418.072 714.8585,-413.072 714.8585,-418.072 714.8585,-418.072 714.8585,-418.072 714.8585,-413.072 710.3585,-418.072 714.8585,-408.072 714.8585,-408.072"/>
<polygon fill="#000000" stroke="#000000" points="714.8585,-450.4006 710.3585,-460.4006 714.8585,-455.4006 714.8585,-460.4006 714.8585,-460.4006 714.8585,-460.4006 714.8585,-455.4006 719.3585,-460.4006 714.8585,-450.4006 714.8585,-450.4006"/>
<text text-anchor="middle" x="764.5668" y="-430.2" font-family="Times,serif" font-size="14.00" fill="#000000">retourEtatInit</text>
</g>
<!-- 36 -->
<g id="node12" class="node">
<title>36</title>
<polygon fill="none" stroke="#000000" points="599.3567,-36 538.3602,-36 538.3602,0 599.3567,0 599.3567,-36"/>
<text text-anchor="middle" x="568.8585" y="-13.8" font-family="Times,serif" font-size="14.00" fill="#000000">Caméra</text>
</g>
<!-- 37&#45;&gt;5 -->
<g id="edge19" class="edge">
<title>37&#45;&gt;5</title>
<path fill="none" stroke="#000000" d="M538.1791,-117.667C538.1791,-117.667 538.1791,-184 538.1791,-184 538.1791,-184 380.0695,-184 380.0695,-184"/>
<polygon fill="#000000" stroke="#000000" points="538.1791,-107.667 542.6792,-117.6669 538.1792,-112.667 538.1792,-117.667 538.1792,-117.667 538.1792,-117.667 538.1792,-112.667 533.6792,-117.667 538.1791,-107.667 538.1791,-107.667"/>
<polygon fill="#000000" stroke="#000000" points="380.0695,-184.0001 370.0695,-179.5 375.0695,-184 370.0695,-184 370.0695,-184 370.0695,-184 375.0695,-184 370.0694,-188.5 380.0695,-184.0001 380.0695,-184.0001"/>
<text text-anchor="middle" x="426.909" y="-147" font-family="Times,serif" font-size="14.00" fill="#000000">start</text>
</g>
<!-- 37&#45;&gt;9 -->
<g id="edge22" class="edge">
<title>37&#45;&gt;9</title>
<path fill="none" stroke="#000000" d="M706.055,-134.9462C706.055,-134.9462 706.055,-361.6384 706.055,-361.6384"/>
<polygon fill="#000000" stroke="#000000" points="706.055,-371.6384 701.555,-361.6384 706.055,-366.6384 706.055,-361.6384 706.055,-361.6384 706.055,-361.6384 706.055,-366.6384 710.555,-361.6384 706.055,-371.6384 706.055,-371.6384"/>
<polygon fill="#000000" stroke="#000000" points="706.055,-134.9462 710.555,-124.9462 706.055,-129.9462 706.055,-124.9462 706.055,-124.9462 706.055,-124.9462 706.055,-129.9462 701.555,-124.9462 706.055,-134.9462 706.055,-134.9462"/>
<text text-anchor="middle" x="730.239" y="-252.6" font-family="Times,serif" font-size="14.00" fill="#000000">echecDémarrage,</text>
<text text-anchor="middle" x="730.239" y="-235.8" font-family="Times,serif" font-size="14.00" fill="#000000">echecCalcArene,ACK</text>
</g>
<!-- 37&#45;&gt;9 -->
<g id="edge31" class="edge">
<title>37&#45;&gt;9</title>
<path fill="none" stroke="#000000" d="M674.7562,-144.9462C674.7562,-144.9462 674.7562,-351.6384 674.7562,-351.6384"/>
<polygon fill="#000000" stroke="#000000" points="674.7562,-371.6384 670.2562,-361.6384 674.7562,-366.6384 674.7562,-361.6384 674.7562,-361.6384 674.7562,-361.6384 674.7562,-366.6384 679.2562,-361.6384 674.7562,-371.6384 674.7562,-371.6384"/>
<polygon fill="#000000" stroke="#000000" points="671.2562,-351.6384 674.7562,-361.6384 678.2562,-351.6384 671.2562,-351.6384"/>
<polygon fill="#000000" stroke="#000000" points="678.2562,-124.9462 674.7562,-134.9462 671.2562,-124.9462 678.2562,-124.9462"/>
<polygon fill="#000000" stroke="#000000" points="674.7562,-144.9462 679.2562,-134.9462 674.7562,-139.9462 674.7562,-134.9462 674.7562,-134.9462 674.7562,-134.9462 674.7562,-139.9462 670.2562,-134.9462 674.7562,-144.9462 674.7562,-144.9462"/>
<text text-anchor="middle" x="838.4167" y="-244.2" font-family="Times,serif" font-size="14.00" fill="#000000">position</text>
</g>
<!-- 37&#45;&gt;36 -->
<g id="edge20" class="edge">
<title>37&#45;&gt;36</title>
<path fill="none" stroke="#000000" d="M553.7344,-78.4006C553.7344,-78.4006 553.7344,-46.072 553.7344,-46.072"/>
<polygon fill="#000000" stroke="#000000" points="553.7344,-36.072 558.2344,-46.072 553.7344,-41.072 553.7344,-46.072 553.7344,-46.072 553.7344,-46.072 553.7344,-41.072 549.2344,-46.072 553.7344,-36.072 553.7344,-36.072"/>
<polygon fill="#000000" stroke="#000000" points="553.7344,-78.4006 549.2344,-88.4006 553.7344,-83.4006 553.7344,-88.4006 553.7344,-88.4006 553.7344,-88.4006 553.7344,-83.4006 558.2344,-88.4006 553.7344,-78.4006 553.7344,-78.4006"/>
<text text-anchor="middle" x="651.5219" y="-58.2" font-family="Times,serif" font-size="14.00" fill="#000000">start/stop</text>
</g>
<!-- 37&#45;&gt;36 -->
<g id="edge21" class="edge">
<title>37&#45;&gt;36</title>
<path fill="none" stroke="#000000" d="M568.8585,-78.4006C568.8585,-78.4006 568.8585,-46.072 568.8585,-46.072"/>
<polygon fill="#000000" stroke="#000000" points="568.8585,-36.072 573.3585,-46.072 568.8585,-41.072 568.8585,-46.072 568.8585,-46.072 568.8585,-46.072 568.8585,-41.072 564.3585,-46.072 568.8585,-36.072 568.8585,-36.072"/>
<polygon fill="#000000" stroke="#000000" points="568.8585,-78.4006 564.3585,-88.4006 568.8585,-83.4006 568.8585,-88.4006 568.8585,-88.4006 568.8585,-88.4006 568.8585,-83.4006 573.3585,-88.4006 568.8585,-78.4006 568.8585,-78.4006"/>
<text text-anchor="middle" x="519.9013" y="-58.2" font-family="Times,serif" font-size="14.00" fill="#000000">getImage</text>
</g>
<!-- 37&#45;&gt;36 -->
<g id="edge25" class="edge">
<title>37&#45;&gt;36</title>
<path fill="none" stroke="#000000" d="M583.9825,-68.4006C583.9825,-68.4006 583.9825,-56.072 583.9825,-56.072"/>
<polygon fill="#000000" stroke="#000000" points="587.4825,-36.072 583.9825,-46.072 580.4825,-36.072 587.4825,-36.072"/>
<polygon fill="#000000" stroke="#000000" points="583.9826,-56.072 588.4825,-46.072 583.9826,-51.072 583.9825,-46.072 583.9825,-46.072 583.9825,-46.072 583.9826,-51.072 579.4825,-46.072 583.9826,-56.072 583.9826,-56.072"/>
<polygon fill="#000000" stroke="#000000" points="583.9825,-88.4006 579.4825,-78.4006 583.9825,-83.4006 583.9825,-78.4006 583.9825,-78.4006 583.9825,-78.4006 583.9825,-83.4006 588.4825,-78.4006 583.9825,-88.4006 583.9825,-88.4006"/>
<polygon fill="#000000" stroke="#000000" points="580.4826,-68.4006 583.9825,-78.4006 587.4826,-68.4006 580.4826,-68.4006"/>
<text text-anchor="middle" x="585.9637" y="-58.2" font-family="Times,serif" font-size="14.00" fill="#000000">image</text>
</g>
<!-- 52 -->
<g id="node16" class="node">
<title>52</title>
<polygon fill="none" stroke="#000000" stroke-dasharray="5,2" points="814.7184,-36 686.0884,-36 652.9986,0 781.6286,0 814.7184,-36"/>
<text text-anchor="middle" x="733.8585" y="-13.8" font-family="Times,serif" font-size="14.00" fill="#000000">th_CalcPos</text>
</g>
<!-- 37&#45;&gt;52 -->
<g id="edge30" class="edge">
<title>37&#45;&gt;52</title>
<path fill="none" stroke="#000000" d="M681.237,-68.4006C681.237,-68.4006 681.237,-50.9167 681.237,-50.9167"/>
<polygon fill="#000000" stroke="#000000" points="684.737,-30.9167 681.2371,-40.9167 677.737,-30.9167 684.737,-30.9167"/>
<polygon fill="#000000" stroke="#000000" points="681.2371,-50.9167 685.7371,-40.9167 681.2371,-45.9167 681.2371,-40.9167 681.2371,-40.9167 681.2371,-40.9167 681.2371,-45.9167 676.7371,-40.9167 681.2371,-50.9167 681.2371,-50.9167"/>
<polygon fill="#000000" stroke="#000000" points="681.237,-88.4006 676.7371,-78.4006 681.2371,-83.4006 681.2371,-78.4006 681.2371,-78.4006 681.2371,-78.4006 681.2371,-83.4006 685.7371,-78.4006 681.237,-88.4006 681.237,-88.4006"/>
<polygon fill="#000000" stroke="#000000" points="677.7371,-68.4006 681.2371,-78.4006 684.7371,-68.4006 677.7371,-68.4006"/>
<text text-anchor="middle" x="722.4167" y="-58.2" font-family="Times,serif" font-size="14.00" fill="#000000">position</text>
</g>
<!-- 47 -->
<g id="node14" class="node">
<title>47</title>
<ellipse fill="#000000" stroke="#000000" cx="259.8585" cy="-301.2" rx="1.8" ry="1.8"/>
</g>
<!-- 47&#45;&gt;5 -->
<g id="edge23" class="edge">
<title>47&#45;&gt;5</title>
<path fill="none" stroke="#000000" d="M259.8585,-289.3671C259.8585,-289.3671 259.8585,-223.6558 259.8585,-223.6558"/>
<polygon fill="#000000" stroke="#000000" points="259.8585,-213.6558 264.3585,-223.6558 259.8585,-218.6558 259.8585,-223.6558 259.8585,-223.6558 259.8585,-223.6558 259.8585,-218.6558 255.3585,-223.6558 259.8585,-213.6558 259.8585,-213.6558"/>
<polygon fill="#000000" stroke="#000000" points="259.8585,-289.3671 255.3585,-299.3671 259.8585,-294.3671 259.8585,-299.3671 259.8585,-299.3671 259.8585,-299.3671 259.8585,-294.3671 264.3585,-299.3671 259.8585,-289.3671 259.8585,-289.3671"/>
<text text-anchor="middle" x="310.0051" y="-244.2" font-family="Times,serif" font-size="14.00" fill="#000000">areneOK/PASOK</text>
</g>
<!-- 52&#45;&gt;37 -->
<g id="edge29" class="edge">
<title>52&#45;&gt;37</title>
<path fill="none" stroke="#000000" d="M709.2954,-46.3994C709.2954,-46.3994 709.2954,-92.532 709.2954,-92.532"/>
<polygon fill="#000000" stroke="#000000" points="709.2954,-92.532 704.7954,-102.532 709.2954,-97.532 709.2954,-102.532 709.2954,-102.532 709.2954,-102.532 709.2954,-97.532 713.7954,-102.532 709.2954,-92.532 709.2954,-92.532"/>
<polygon fill="#000000" stroke="#000000" points="709.2954,-36.3994 713.7954,-46.3994 709.2954,-41.3994 709.2954,-46.3994 709.2954,-46.3994 709.2954,-46.3994 709.2954,-41.3994 704.7954,-46.3994 709.2954,-36.3994 709.2954,-36.3994"/>
<text text-anchor="middle" x="789.2393" y="-58.2" font-family="Times,serif" font-size="14.00" fill="#000000">calcPos</text>
</g>
</g>
</svg>
