<?xml version="1.0" encoding="UTF-8" standalone="no"?>
<!DOCTYPE svg PUBLIC "-//W3C//DTD SVG 1.1//EN"
 "http://www.w3.org/Graphics/SVG/1.1/DTD/svg11.dtd">
<!-- Generated by graphviz version 2.40.1 (20161225.0304)
 -->
<!-- Title: G Pages: 1 -->
<svg width="1975pt" height="1196pt"
 viewBox="0.00 0.00 1974.80 1195.60" xmlns="http://www.w3.org/2000/svg" xmlns:xlink="http://www.w3.org/1999/xlink">
<g id="graph0" class="graph" transform="scale(1 1) rotate(0) translate(4 1191.6)">
<title>G</title>
<polygon fill="#ffffff" stroke="transparent" points="-4,4 -4,-1191.6 1970.8,-1191.6 1970.8,4 -4,4"/>
<g id="clust1" class="cluster">
<title>cluster0</title>
</g>
<g id="clust2" class="cluster">
<title>cluster1</title>
</g>
<g id="clust3" class="cluster">
<title>cluster2</title>
</g>
<g id="clust4" class="cluster">
<title>cluster3</title>
</g>
<g id="clust5" class="cluster">
<title>cluster4</title>
</g>
<g id="clust6" class="cluster">
<title>cluster5</title>
</g>
<g id="clust7" class="cluster">
<title>cluster6</title>
</g>
<!-- 2 -->
<g id="node1" class="node">
<title>2</title>
<ellipse fill="#000000" stroke="#000000" stroke-width="0" cx="430.8" cy="-1169.6" rx="1.8" ry="1.8"/>
<ellipse fill="none" stroke="#000000" stroke-width="0" cx="430.8" cy="-1169.6" rx="5.8" ry="5.8"/>
<ellipse fill="none" stroke="#000000" stroke-width="0" cx="430.8" cy="-1169.6" rx="9.8" ry="9.8"/>
</g>
<!-- 3 -->
<g id="node2" class="node">
<title>3</title>
<path fill="#2a9d8f" stroke="#264653" d="M461.772,-1098.8C461.772,-1098.8 399.828,-1098.8 399.828,-1098.8 393.828,-1098.8 387.828,-1092.8 387.828,-1086.8 387.828,-1086.8 387.828,-1074.8 387.828,-1074.8 387.828,-1068.8 393.828,-1062.8 399.828,-1062.8 399.828,-1062.8 461.772,-1062.8 461.772,-1062.8 467.772,-1062.8 473.772,-1068.8 473.772,-1074.8 473.772,-1074.8 473.772,-1086.8 473.772,-1086.8 473.772,-1092.8 467.772,-1098.8 461.772,-1098.8"/>
<text text-anchor="middle" x="430.8" y="-1076.6" font-family="Times,serif" font-size="14.00" fill="#ffffff">Start_Server</text>
</g>
<!-- 2&#45;&gt;3 -->
<g id="edge2" class="edge">
<title>2&#45;&gt;3</title>
<path fill="none" stroke="#000000" stroke-dasharray="5,2" d="M430.8,-1159.7576C430.8,-1159.7576 430.8,-1109.0011 430.8,-1109.0011"/>
<polygon fill="#000000" stroke="#000000" points="434.3001,-1109.001 430.8,-1099.0011 427.3001,-1109.0011 434.3001,-1109.001"/>
<text text-anchor="middle" x="442.8505" y="-1121" font-family="Times,serif" font-size="14.00" fill="#000000">start</text>
</g>
<!-- 4 -->
<g id="node3" class="node">
<title>4</title>
<path fill="#2a9d8f" stroke="#264653" d="M544.6243,-990.4C544.6243,-990.4 416.9757,-990.4 416.9757,-990.4 410.9757,-990.4 404.9757,-984.4 404.9757,-978.4 404.9757,-978.4 404.9757,-966.4 404.9757,-966.4 404.9757,-960.4 410.9757,-954.4 416.9757,-954.4 416.9757,-954.4 544.6243,-954.4 544.6243,-954.4 550.6243,-954.4 556.6243,-960.4 556.6243,-966.4 556.6243,-966.4 556.6243,-978.4 556.6243,-978.4 556.6243,-984.4 550.6243,-990.4 544.6243,-990.4"/>
<text text-anchor="middle" x="480.8" y="-968.2" font-family="Times,serif" font-size="14.00" fill="#ffffff">Connection_to_Monitor</text>
</g>
<!-- 3&#45;&gt;4 -->
<g id="edge1" class="edge">
<title>3&#45;&gt;4</title>
<path fill="none" stroke="#000000" stroke-dasharray="5,2" d="M439.462,-1062.4114C439.462,-1062.4114 439.462,-1000.517 439.462,-1000.517"/>
<polygon fill="#000000" stroke="#000000" points="442.9621,-1000.517 439.462,-990.517 435.9621,-1000.517 442.9621,-1000.517"/>
<text text-anchor="middle" x="469.4743" y="-1032.2" font-family="Times,serif" font-size="14.00" fill="#000000">Server started</text>
</g>
<!-- 10 -->
<g id="node6" class="node">
<title>10</title>
<path fill="#2a9d8f" stroke="#264653" d="M695.4303,-795.6C695.4303,-795.6 580.1697,-795.6 580.1697,-795.6 574.1697,-795.6 568.1697,-789.6 568.1697,-783.6 568.1697,-783.6 568.1697,-771.6 568.1697,-771.6 568.1697,-765.6 574.1697,-759.6 580.1697,-759.6 580.1697,-759.6 695.4303,-759.6 695.4303,-759.6 701.4303,-759.6 707.4303,-765.6 707.4303,-771.6 707.4303,-771.6 707.4303,-783.6 707.4303,-783.6 707.4303,-789.6 701.4303,-795.6 695.4303,-795.6"/>
<text text-anchor="middle" x="637.8" y="-773.4" font-family="Times,serif" font-size="14.00" fill="#ffffff">Receive from monitor</text>
</g>
<!-- 4&#45;&gt;10 -->
<g id="edge11" class="edge">
<title>4&#45;&gt;10</title>
<path fill="none" stroke="#000000" stroke-dasharray="5,2" d="M556.6754,-956C571.7264,-956 582.9925,-956 582.9925,-956 582.9925,-956 582.9925,-805.6877 582.9925,-805.6877"/>
<polygon fill="#000000" stroke="#000000" points="586.4926,-805.6877 582.9925,-795.6877 579.4926,-805.6877 586.4926,-805.6877"/>
<text text-anchor="middle" x="532.8235" y="-904.2" font-family="Times,serif" font-size="14.00" fill="#000000">Connection ok</text>
</g>
<!-- 26 -->
<g id="node13" class="node">
<title>26</title>
<path fill="#2a9d8f" stroke="#264653" d="M458.737,-169.6C458.737,-169.6 362.863,-169.6 362.863,-169.6 356.863,-169.6 350.863,-163.6 350.863,-157.6 350.863,-157.6 350.863,-145.6 350.863,-145.6 350.863,-139.6 356.863,-133.6 362.863,-133.6 362.863,-133.6 458.737,-133.6 458.737,-133.6 464.737,-133.6 470.737,-139.6 470.737,-145.6 470.737,-145.6 470.737,-157.6 470.737,-157.6 470.737,-163.6 464.737,-169.6 458.737,-169.6"/>
<text text-anchor="middle" x="410.8" y="-147.4" font-family="Times,serif" font-size="14.00" fill="#ffffff">Send_To_Monitor</text>
</g>
<!-- 4&#45;&gt;26 -->
<g id="edge12" class="edge">
<title>4&#45;&gt;26</title>
<path fill="none" stroke="#000000" stroke-dasharray="5,2" d="M556.649,-960C636.8203,-960 751.8,-960 751.8,-960 751.8,-960 751.8,-142 751.8,-142 751.8,-142 480.5879,-142 480.5879,-142"/>
<polygon fill="#000000" stroke="#000000" points="480.5879,-138.5001 470.5879,-142 480.5878,-145.5001 480.5879,-138.5001"/>
<text text-anchor="middle" x="155.8235" y="-553.8" font-family="Times,serif" font-size="14.00" fill="#000000">Connection ok</text>
</g>
<!-- 7 -->
<g id="node4" class="node">
<title>7</title>
<path fill="#2a9d8f" stroke="#264653" d="M922.5982,-990.4C922.5982,-990.4 845.0018,-990.4 845.0018,-990.4 839.0018,-990.4 833.0018,-984.4 833.0018,-978.4 833.0018,-978.4 833.0018,-966.4 833.0018,-966.4 833.0018,-960.4 839.0018,-954.4 845.0018,-954.4 845.0018,-954.4 922.5982,-954.4 922.5982,-954.4 928.5982,-954.4 934.5982,-960.4 934.5982,-966.4 934.5982,-966.4 934.5982,-978.4 934.5982,-978.4 934.5982,-984.4 928.5982,-990.4 922.5982,-990.4"/>
<text text-anchor="middle" x="883.8" y="-968.2" font-family="Times,serif" font-size="14.00" fill="#ffffff">Fermer caméra</text>
</g>
<!-- 7&#45;&gt;10 -->
<g id="edge4" class="edge">
<title>7&#45;&gt;10</title>
<path fill="none" stroke="#000000" stroke-dasharray="5,2" d="M833.087,-958C779.2179,-958 701.7433,-958 701.7433,-958 701.7433,-958 701.7433,-841.7534 701.7433,-795.8905"/>
<text text-anchor="middle" x="875.1472" y="-904.2" font-family="Times,serif" font-size="14.00" fill="#000000">caméra fermée</text>
</g>
<!-- 49 -->
<g id="node20" class="node">
<title>49</title>
<path fill="#2a9d8f" stroke="#264653" d="M539.4383,-398C539.4383,-398 462.1617,-398 462.1617,-398 456.1617,-398 450.1617,-392 450.1617,-386 450.1617,-386 450.1617,-374 450.1617,-374 450.1617,-368 456.1617,-362 462.1617,-362 462.1617,-362 539.4383,-362 539.4383,-362 545.4383,-362 551.4383,-368 551.4383,-374 551.4383,-374 551.4383,-386 551.4383,-386 551.4383,-392 545.4383,-398 539.4383,-398"/>
<text text-anchor="middle" x="500.8" y="-375.8" font-family="Times,serif" font-size="14.00" fill="#ffffff">Envoyer image</text>
</g>
<!-- 7&#45;&gt;49 -->
<g id="edge25" class="edge">
<title>7&#45;&gt;49</title>
<path fill="none" stroke="#000000" d="M883.8,-954.1028C883.8,-855.6161 883.8,-393 883.8,-393 883.8,-393 561.6594,-393 561.6594,-393"/>
<polygon fill="#000000" stroke="#000000" points="561.6595,-389.5001 551.6594,-393 561.6594,-396.5001 561.6595,-389.5001"/>
</g>
<!-- 8 -->
<g id="node5" class="node">
<title>8</title>
<ellipse fill="#000000" stroke="#000000" stroke-width="0" cx="530.8" cy="-1080.8" rx="1.8" ry="1.8"/>
<ellipse fill="none" stroke="#000000" stroke-width="0" cx="530.8" cy="-1080.8" rx="5.8" ry="5.8"/>
<ellipse fill="none" stroke="#000000" stroke-width="0" cx="530.8" cy="-1080.8" rx="9.8" ry="9.8"/>
</g>
<!-- 8&#45;&gt;4 -->
<g id="edge3" class="edge">
<title>8&#45;&gt;4</title>
<path fill="none" stroke="#000000" stroke-dasharray="5,2" d="M530.8,-1070.7963C530.8,-1070.7963 530.8,-1000.6048 530.8,-1000.6048"/>
<polygon fill="#000000" stroke="#000000" points="534.3001,-1000.6048 530.8,-990.6048 527.3001,-1000.6049 534.3001,-1000.6048"/>
<text text-anchor="middle" x="564.0395" y="-1032.2" font-family="Times,serif" font-size="14.00" fill="#000000">open socket</text>
</g>
<!-- 14 -->
<g id="node8" class="node">
<title>14</title>
<path fill="#2a9d8f" stroke="#264653" d="M592.7625,-576C592.7625,-576 500.8375,-576 500.8375,-576 494.8375,-576 488.8375,-570 488.8375,-564 488.8375,-564 488.8375,-552 488.8375,-552 488.8375,-546 494.8375,-540 500.8375,-540 500.8375,-540 592.7625,-540 592.7625,-540 598.7625,-540 604.7625,-546 604.7625,-552 604.7625,-552 604.7625,-564 604.7625,-564 604.7625,-570 598.7625,-576 592.7625,-576"/>
<text text-anchor="middle" x="546.8" y="-553.8" font-family="Times,serif" font-size="14.00" fill="#ffffff">Démarrer caméra</text>
</g>
<!-- 10&#45;&gt;14 -->
<g id="edge6" class="edge">
<title>10&#45;&gt;14</title>
<path fill="none" stroke="#ff0000" stroke-dasharray="5,2" d="M595.3944,-759.2547C595.3944,-759.2547 595.3944,-586.1386 595.3944,-586.1386"/>
<polygon fill="#ff0000" stroke="#ff0000" points="598.8945,-586.1386 595.3944,-576.1386 591.8945,-586.1386 598.8945,-586.1386"/>
</g>
<!-- 18 -->
<g id="node10" class="node">
<title>18</title>
<ellipse fill="#000000" stroke="#000000" stroke-width="0" cx="632.8" cy="-558" rx="1.8" ry="1.8"/>
<ellipse fill="none" stroke="#000000" stroke-width="0" cx="632.8" cy="-558" rx="5.8" ry="5.8"/>
<ellipse fill="none" stroke="#000000" stroke-width="0" cx="632.8" cy="-558" rx="9.8" ry="9.8"/>
</g>
<!-- 10&#45;&gt;18 -->
<g id="edge7" class="edge">
<title>10&#45;&gt;18</title>
<path fill="none" stroke="#ff0000" stroke-dasharray="5,2" d="M632.8,-759.2547C632.8,-759.2547 632.8,-577.9433 632.8,-577.9433"/>
<polygon fill="#ff0000" stroke="#ff0000" points="636.3001,-577.9432 632.8,-567.9433 629.3001,-577.9433 636.3001,-577.9432"/>
<text text-anchor="middle" x="569.9094" y="-642.6" font-family="Times,serif" font-size="14.00" fill="#000000">Perte </text>
<text text-anchor="middle" x="569.9094" y="-625.8" font-family="Times,serif" font-size="14.00" fill="#000000">Communication</text>
<text text-anchor="middle" x="569.9094" y="-609" font-family="Times,serif" font-size="14.00" fill="#000000"> Moniteur</text>
</g>
<!-- 21 -->
<g id="node11" class="node">
<title>21</title>
<ellipse fill="#000000" stroke="#000000" stroke-width="0" cx="670.8" cy="-558" rx="1.8" ry="1.8"/>
<ellipse fill="none" stroke="#000000" stroke-width="0" cx="670.8" cy="-558" rx="5.8" ry="5.8"/>
<ellipse fill="none" stroke="#000000" stroke-width="0" cx="670.8" cy="-558" rx="9.8" ry="9.8"/>
</g>
<!-- 10&#45;&gt;21 -->
<g id="edge9" class="edge">
<title>10&#45;&gt;21</title>
<path fill="none" stroke="#ff0000" d="M670.8,-759.2547C670.8,-759.2547 670.8,-577.9433 670.8,-577.9433"/>
<polygon fill="#ff0000" stroke="#ff0000" points="674.3001,-577.9432 670.8,-567.9433 667.3001,-577.9433 674.3001,-577.9432"/>
<text text-anchor="middle" x="661.9871" y="-625.8" font-family="Times,serif" font-size="14.00" fill="#000000">déplacer</text>
</g>
<!-- 23 -->
<g id="node12" class="node">
<title>23</title>
<ellipse fill="#000000" stroke="#000000" stroke-width="0" cx="708.8" cy="-558" rx="1.8" ry="1.8"/>
<ellipse fill="none" stroke="#000000" stroke-width="0" cx="708.8" cy="-558" rx="5.8" ry="5.8"/>
<ellipse fill="none" stroke="#000000" stroke-width="0" cx="708.8" cy="-558" rx="9.8" ry="9.8"/>
</g>
<!-- 10&#45;&gt;23 -->
<g id="edge10" class="edge">
<title>10&#45;&gt;23</title>
<path fill="none" stroke="#ff0000" stroke-dasharray="5,2" d="M701.8716,-759.2547C701.8716,-759.2547 701.8716,-575.285 701.8716,-575.285"/>
<polygon fill="#ff0000" stroke="#ff0000" points="705.3717,-575.2849 701.8716,-565.285 698.3717,-575.285 705.3717,-575.2849"/>
<text text-anchor="middle" x="740.3707" y="-642.6" font-family="Times,serif" font-size="14.00" fill="#000000">Choix </text>
<text text-anchor="middle" x="740.3707" y="-625.8" font-family="Times,serif" font-size="14.00" fill="#000000">Mode </text>
<text text-anchor="middle" x="740.3707" y="-609" font-family="Times,serif" font-size="14.00" fill="#000000">Démarrage</text>
</g>
<!-- 47 -->
<g id="node18" class="node">
<title>47</title>
<path fill="#2a9d8f" stroke="#264653" d="M458.7812,-576C458.7812,-576 356.8188,-576 356.8188,-576 350.8188,-576 344.8188,-570 344.8188,-564 344.8188,-564 344.8188,-552 344.8188,-552 344.8188,-546 350.8188,-540 356.8188,-540 356.8188,-540 458.7812,-540 458.7812,-540 464.7812,-540 470.7812,-546 470.7812,-552 470.7812,-552 470.7812,-564 470.7812,-564 470.7812,-570 464.7812,-576 458.7812,-576"/>
<text text-anchor="middle" x="407.8" y="-553.8" font-family="Times,serif" font-size="14.00" fill="#ffffff">Recherche d&#39;arène</text>
</g>
<!-- 10&#45;&gt;47 -->
<g id="edge18" class="edge">
<title>10&#45;&gt;47</title>
<path fill="none" stroke="#000000" d="M586.2579,-759.5777C586.2579,-717.2428 586.2579,-615 586.2579,-615 586.2579,-615 407.8,-615 407.8,-615 407.8,-615 407.8,-586.0352 407.8,-586.0352"/>
<polygon fill="#000000" stroke="#000000" points="411.3001,-586.0351 407.8,-576.0352 404.3001,-586.0352 411.3001,-586.0351"/>
</g>
<!-- 48 -->
<g id="node19" class="node">
<title>48</title>
<path fill="#2a9d8f" stroke="#264653" d="M314.8386,-576C314.8386,-576 226.7614,-576 226.7614,-576 220.7614,-576 214.7614,-570 214.7614,-564 214.7614,-564 214.7614,-552 214.7614,-552 214.7614,-546 220.7614,-540 226.7614,-540 226.7614,-540 314.8386,-540 314.8386,-540 320.8386,-540 326.8386,-546 326.8386,-552 326.8386,-552 326.8386,-564 326.8386,-564 326.8386,-570 320.8386,-576 314.8386,-576"/>
<text text-anchor="middle" x="270.8" y="-553.8" font-family="Times,serif" font-size="14.00" fill="#ffffff">Calculer position</text>
</g>
<!-- 10&#45;&gt;48 -->
<g id="edge17" class="edge">
<title>10&#45;&gt;48</title>
<path fill="none" stroke="#000000" stroke-dasharray="5,2" d="M577.1215,-759.5821C577.1215,-723.115 577.1215,-644 577.1215,-644 577.1215,-644 270.8,-644 270.8,-644 270.8,-644 270.8,-586.2384 270.8,-586.2384"/>
<polygon fill="#000000" stroke="#000000" points="274.3001,-586.2384 270.8,-576.2384 267.3001,-586.2384 274.3001,-586.2384"/>
<text text-anchor="middle" x="361.2134" y="-642.6" font-family="Times,serif" font-size="14.00" fill="#000000">start/stop </text>
<text text-anchor="middle" x="361.2134" y="-625.8" font-family="Times,serif" font-size="14.00" fill="#000000">calcul </text>
<text text-anchor="middle" x="361.2134" y="-609" font-family="Times,serif" font-size="14.00" fill="#000000">position</text>
</g>
<!-- 50 -->
<g id="node21" class="node">
<title>50</title>
<path fill="#2a9d8f" stroke="#264653" d="M1631.3668,-795.6C1631.3668,-795.6 1372.2332,-795.6 1372.2332,-795.6 1366.2332,-795.6 1360.2332,-789.6 1360.2332,-783.6 1360.2332,-783.6 1360.2332,-771.6 1360.2332,-771.6 1360.2332,-765.6 1366.2332,-759.6 1372.2332,-759.6 1372.2332,-759.6 1631.3668,-759.6 1631.3668,-759.6 1637.3668,-759.6 1643.3668,-765.6 1643.3668,-771.6 1643.3668,-771.6 1643.3668,-783.6 1643.3668,-783.6 1643.3668,-789.6 1637.3668,-795.6 1631.3668,-795.6"/>
<text text-anchor="middle" x="1501.8" y="-773.4" font-family="Times,serif" font-size="14.00" fill="#ffffff">Mettre en place la communication avec le robot</text>
</g>
<!-- 10&#45;&gt;50 -->
<g id="edge26" class="edge">
<title>10&#45;&gt;50</title>
<path fill="none" stroke="#ff0000" d="M704.7433,-759.419C704.7433,-743.5358 704.7433,-723 704.7433,-723 704.7433,-723 1394.615,-723 1394.615,-723 1394.615,-723 1394.615,-749.419 1394.615,-749.419"/>
<polygon fill="#ff0000" stroke="#ff0000" points="1391.1151,-749.419 1394.615,-759.419 1398.1151,-749.419 1391.1151,-749.419"/>
</g>
<!-- 60 -->
<g id="node31" class="node">
<title>60</title>
<ellipse fill="#000000" stroke="#000000" stroke-width="0" cx="794.8" cy="-558" rx="1.8" ry="1.8"/>
<ellipse fill="none" stroke="#000000" stroke-width="0" cx="794.8" cy="-558" rx="5.8" ry="5.8"/>
<ellipse fill="none" stroke="#000000" stroke-width="0" cx="794.8" cy="-558" rx="9.8" ry="9.8"/>
</g>
<!-- 10&#45;&gt;60 -->
<g id="edge41" class="edge">
<title>10&#45;&gt;60</title>
<path fill="none" stroke="#000000" stroke-dasharray="5,2" d="M707.5768,-763C749.5076,-763 794.8,-763 794.8,-763 794.8,-763 794.8,-577.8876 794.8,-577.8876"/>
<polygon fill="#000000" stroke="#000000" points="798.3001,-577.8875 794.8,-567.8876 791.3001,-577.8876 798.3001,-577.8875"/>
<text text-anchor="middle" x="857.7853" y="-625.8" font-family="Times,serif" font-size="14.00" fill="#000000">DMB_RELOAD_WD</text>
</g>
<!-- 12 -->
<g id="node7" class="node">
<title>12</title>
<ellipse fill="#000000" stroke="#000000" stroke-width="0" cx="607.8" cy="-972.4" rx="1.8" ry="1.8"/>
<ellipse fill="none" stroke="#000000" stroke-width="0" cx="607.8" cy="-972.4" rx="5.8" ry="5.8"/>
<ellipse fill="none" stroke="#000000" stroke-width="0" cx="607.8" cy="-972.4" rx="9.8" ry="9.8"/>
</g>
<!-- 12&#45;&gt;10 -->
<g id="edge5" class="edge">
<title>12&#45;&gt;10</title>
<path fill="none" stroke="#ff0000" d="M607.8,-962.472C607.8,-962.472 607.8,-805.8169 607.8,-805.8169"/>
<polygon fill="#ff0000" stroke="#ff0000" points="611.3001,-805.8169 607.8,-795.8169 604.3001,-805.8169 611.3001,-805.8169"/>
<text text-anchor="middle" x="642.4024" y="-904.2" font-family="Times,serif" font-size="14.00" fill="#000000">InputStream</text>
</g>
<!-- 14&#45;&gt;49 -->
<g id="edge19" class="edge">
<title>14&#45;&gt;49</title>
<path fill="none" stroke="#ff0000" stroke-dasharray="5,2" d="M520.2192,-539.9528C520.2192,-539.9528 520.2192,-408.0949 520.2192,-408.0949"/>
<polygon fill="#ff0000" stroke="#ff0000" points="523.7192,-408.0949 520.2192,-398.0949 516.7192,-408.095 523.7192,-408.0949"/>
</g>
<!-- 16 -->
<g id="node9" class="node">
<title>16</title>
<ellipse fill="#000000" stroke="#000000" stroke-width="0" cx="699.8" cy="-972.4" rx="1.8" ry="1.8"/>
<ellipse fill="none" stroke="#000000" stroke-width="0" cx="699.8" cy="-972.4" rx="5.8" ry="5.8"/>
<ellipse fill="none" stroke="#000000" stroke-width="0" cx="699.8" cy="-972.4" rx="9.8" ry="9.8"/>
</g>
<!-- 16&#45;&gt;10 -->
<g id="edge8" class="edge">
<title>16&#45;&gt;10</title>
<path fill="none" stroke="#ff0000" stroke-dasharray="5,2" d="M695.8716,-963.2657C695.8716,-963.2657 695.8716,-805.7425 695.8716,-805.7425"/>
<polygon fill="#ff0000" stroke="#ff0000" points="699.3717,-805.7425 695.8716,-795.7425 692.3717,-805.7426 699.3717,-805.7425"/>
<text text-anchor="middle" x="752.0655" y="-904.2" font-family="Times,serif" font-size="14.00" fill="#000000">démarrageCaméra</text>
</g>
<!-- 45 -->
<g id="node16" class="node">
<title>45</title>
<ellipse fill="#000000" stroke="#000000" stroke-width="0" cx="359.8" cy="-9.8" rx="1.8" ry="1.8"/>
<ellipse fill="none" stroke="#000000" stroke-width="0" cx="359.8" cy="-9.8" rx="5.8" ry="5.8"/>
<ellipse fill="none" stroke="#000000" stroke-width="0" cx="359.8" cy="-9.8" rx="9.8" ry="9.8"/>
</g>
<!-- 26&#45;&gt;45 -->
<g id="edge15" class="edge">
<title>26&#45;&gt;45</title>
<path fill="none" stroke="#000000" d="M360.341,-133.3524C360.341,-133.3524 360.341,-29.5893 360.341,-29.5893"/>
<polygon fill="#000000" stroke="#000000" points="363.841,-29.5893 360.341,-19.5893 356.841,-29.5893 363.841,-29.5893"/>
<text text-anchor="middle" x="399.0707" y="-50.2" font-family="Times,serif" font-size="14.00" fill="#000000">OutputStream</text>
</g>
<!-- 46 -->
<g id="node17" class="node">
<title>46</title>
<ellipse fill="#000000" stroke="#000000" stroke-width="0" cx="461.8" cy="-9.8" rx="1.8" ry="1.8"/>
<ellipse fill="none" stroke="#000000" stroke-width="0" cx="461.8" cy="-9.8" rx="5.8" ry="5.8"/>
<ellipse fill="none" stroke="#000000" stroke-width="0" cx="461.8" cy="-9.8" rx="9.8" ry="9.8"/>
</g>
<!-- 26&#45;&gt;46 -->
<g id="edge16" class="edge">
<title>26&#45;&gt;46</title>
<path fill="none" stroke="#000000" d="M461.2591,-133.3524C461.2591,-133.3524 461.2591,-29.5893 461.2591,-29.5893"/>
<polygon fill="#000000" stroke="#000000" points="464.7591,-29.5893 461.2591,-19.5893 457.7591,-29.5893 464.7591,-29.5893"/>
<text text-anchor="middle" x="482.7881" y="-58.6" font-family="Times,serif" font-size="14.00" fill="#000000">statut </text>
<text text-anchor="middle" x="482.7881" y="-41.8" font-family="Times,serif" font-size="14.00" fill="#000000">batterie</text>
</g>
<!-- 27 -->
<g id="node14" class="node">
<title>27</title>
<ellipse fill="#000000" stroke="#000000" stroke-width="0" cx="578.8" cy="-380" rx="1.8" ry="1.8"/>
<ellipse fill="none" stroke="#000000" stroke-width="0" cx="578.8" cy="-380" rx="5.8" ry="5.8"/>
<ellipse fill="none" stroke="#000000" stroke-width="0" cx="578.8" cy="-380" rx="9.8" ry="9.8"/>
</g>
<!-- 27&#45;&gt;26 -->
<g id="edge13" class="edge">
<title>27&#45;&gt;26</title>
<path fill="none" stroke="#000000" d="M578.8,-370.1602C578.8,-326.3281 578.8,-151 578.8,-151 578.8,-151 480.9773,-151 480.9773,-151"/>
<polygon fill="#000000" stroke="#000000" points="480.9774,-147.5001 470.9773,-151 480.9773,-154.5001 480.9774,-147.5001"/>
<text text-anchor="middle" x="603.2888" y="-269.8" font-family="Times,serif" font-size="14.00" fill="#000000">Message</text>
<text text-anchor="middle" x="603.2888" y="-253" font-family="Times,serif" font-size="14.00" fill="#000000">to</text>
<text text-anchor="middle" x="603.2888" y="-236.2" font-family="Times,serif" font-size="14.00" fill="#000000">monitor</text>
</g>
<!-- 44 -->
<g id="node15" class="node">
<title>44</title>
<ellipse fill="#000000" stroke="#000000" stroke-width="0" cx="9.8" cy="-380" rx="1.8" ry="1.8"/>
<ellipse fill="none" stroke="#000000" stroke-width="0" cx="9.8" cy="-380" rx="5.8" ry="5.8"/>
<ellipse fill="none" stroke="#000000" stroke-width="0" cx="9.8" cy="-380" rx="9.8" ry="9.8"/>
</g>
<!-- 44&#45;&gt;26 -->
<g id="edge14" class="edge">
<title>44&#45;&gt;26</title>
<path fill="none" stroke="#000000" d="M19.8125,-380C79.3417,-380 384.1316,-380 384.1316,-380 384.1316,-380 384.1316,-179.9048 384.1316,-179.9048"/>
<polygon fill="#000000" stroke="#000000" points="387.6317,-179.9048 384.1316,-169.9048 380.6317,-179.9049 387.6317,-179.9048"/>
<text text-anchor="middle" x="54.978" y="-253" font-family="Times,serif" font-size="14.00" fill="#000000">Démarrage ok ?</text>
</g>
<!-- 47&#45;&gt;26 -->
<g id="edge23" class="edge">
<title>47&#45;&gt;26</title>
<path fill="none" stroke="#000000" d="M417.1812,-539.7483C417.1812,-539.7483 417.1812,-179.8014 417.1812,-179.8014"/>
<polygon fill="#000000" stroke="#000000" points="420.6813,-179.8013 417.1812,-169.8014 413.6813,-179.8014 420.6813,-179.8013"/>
<text text-anchor="middle" x="406.2355" y="-384.2" font-family="Times,serif" font-size="14.00" fill="#000000">image or </text>
<text text-anchor="middle" x="406.2355" y="-367.4" font-family="Times,serif" font-size="14.00" fill="#000000">echec</text>
</g>
<!-- 47&#45;&gt;49 -->
<g id="edge22" class="edge">
<title>47&#45;&gt;49</title>
<path fill="none" stroke="#000000" stroke-dasharray="5,2" d="M460.5108,-539.9528C460.5108,-539.9528 460.5108,-408.0949 460.5108,-408.0949"/>
<polygon fill="#000000" stroke="#000000" points="464.0108,-408.0949 460.5108,-398.0949 457.0108,-408.095 464.0108,-408.0949"/>
<text text-anchor="middle" x="454.651" y="-498.6" font-family="Times,serif" font-size="14.00" fill="#000000">stop/restart </text>
<text text-anchor="middle" x="454.651" y="-481.8" font-family="Times,serif" font-size="14.00" fill="#000000">envoi</text>
</g>
<!-- 48&#45;&gt;26 -->
<g id="edge24" class="edge">
<title>48&#45;&gt;26</title>
<path fill="none" stroke="#000000" d="M327.0936,-558C334.1578,-558 338.9675,-558 338.9675,-558 338.9675,-558 338.9675,-151 338.9675,-151 338.9675,-151 340.8292,-151 340.8292,-151"/>
<polygon fill="#000000" stroke="#000000" points="340.8292,-154.5001 350.8292,-151 340.8291,-147.5001 340.8292,-154.5001"/>
</g>
<!-- 48&#45;&gt;49 -->
<g id="edge21" class="edge">
<title>48&#45;&gt;49</title>
<path fill="none" stroke="#000000" d="M270.8,-539.7117C270.8,-496.7519 270.8,-393 270.8,-393 270.8,-393 440.0408,-393 440.0408,-393"/>
<polygon fill="#000000" stroke="#000000" points="440.0408,-396.5001 450.0408,-393 440.0408,-389.5001 440.0408,-396.5001"/>
<text text-anchor="middle" x="340.3582" y="-490.2" font-family="Times,serif" font-size="14.00" fill="#000000">position</text>
</g>
<!-- 49&#45;&gt;26 -->
<g id="edge20" class="edge">
<title>49&#45;&gt;26</title>
<path fill="none" stroke="#000000" d="M455.3027,-361.6952C455.3027,-361.6952 455.3027,-179.675 455.3027,-179.675"/>
<polygon fill="#000000" stroke="#000000" points="458.8028,-179.6749 455.3027,-169.675 451.8028,-179.675 458.8028,-179.6749"/>
<text text-anchor="middle" x="468.9052" y="-253" font-family="Times,serif" font-size="14.00" fill="#000000">image</text>
</g>
<!-- 50&#45;&gt;26 -->
<g id="edge40" class="edge">
<title>50&#45;&gt;26</title>
<path fill="none" stroke="#ff0000" d="M1468.1559,-759.4727C1468.1559,-665.9137 1468.1559,-242 1468.1559,-242 1468.1559,-242 465.4463,-242 465.4463,-242 465.4463,-242 465.4463,-179.8938 465.4463,-179.8938"/>
<polygon fill="#ff0000" stroke="#ff0000" points="468.9464,-179.8938 465.4463,-169.8938 461.9464,-179.8938 468.9464,-179.8938"/>
<text text-anchor="middle" x="1036.0202" y="-498.6" font-family="Times,serif" font-size="14.00" fill="#000000">ACK / </text>
<text text-anchor="middle" x="1036.0202" y="-481.8" font-family="Times,serif" font-size="14.00" fill="#000000">Echec</text>
</g>
<!-- 51 -->
<g id="node22" class="node">
<title>51</title>
<path fill="#2a9d8f" stroke="#264653" d="M1451.3236,-576C1451.3236,-576 1322.2764,-576 1322.2764,-576 1316.2764,-576 1310.2764,-570 1310.2764,-564 1310.2764,-564 1310.2764,-552 1310.2764,-552 1310.2764,-546 1316.2764,-540 1322.2764,-540 1322.2764,-540 1451.3236,-540 1451.3236,-540 1457.3236,-540 1463.3236,-546 1463.3236,-552 1463.3236,-552 1463.3236,-564 1463.3236,-564 1463.3236,-570 1457.3236,-576 1451.3236,-576"/>
<text text-anchor="middle" x="1386.8" y="-553.8" font-family="Times,serif" font-size="14.00" fill="#ffffff">Démarrage simple robot</text>
</g>
<!-- 50&#45;&gt;51 -->
<g id="edge27" class="edge">
<title>50&#45;&gt;51</title>
<path fill="none" stroke="#ff0000" stroke-dasharray="5,2" d="M1428.9634,-759.2547C1428.9634,-759.2547 1428.9634,-586.1386 1428.9634,-586.1386"/>
<polygon fill="#ff0000" stroke="#ff0000" points="1432.4635,-586.1386 1428.9634,-576.1386 1425.4635,-586.1386 1432.4635,-586.1386"/>
<text text-anchor="middle" x="1489.6594" y="-634.2" font-family="Times,serif" font-size="14.00" fill="#000000">Communication </text>
<text text-anchor="middle" x="1489.6594" y="-617.4" font-family="Times,serif" font-size="14.00" fill="#000000">ok</text>
</g>
<!-- 52 -->
<g id="node23" class="node">
<title>52</title>
<path fill="#2a9d8f" stroke="#264653" d="M1939.0629,-576C1939.0629,-576 1746.5371,-576 1746.5371,-576 1740.5371,-576 1734.5371,-570 1734.5371,-564 1734.5371,-564 1734.5371,-552 1734.5371,-552 1734.5371,-546 1740.5371,-540 1746.5371,-540 1746.5371,-540 1939.0629,-540 1939.0629,-540 1945.0629,-540 1951.0629,-546 1951.0629,-552 1951.0629,-552 1951.0629,-564 1951.0629,-564 1951.0629,-570 1945.0629,-576 1939.0629,-576"/>
<text text-anchor="middle" x="1842.8" y="-553.8" font-family="Times,serif" font-size="14.00" fill="#ffffff">Démarrage avec watchdog du robot</text>
</g>
<!-- 50&#45;&gt;52 -->
<g id="edge28" class="edge">
<title>50&#45;&gt;52</title>
<path fill="none" stroke="#ff0000" stroke-dasharray="5,2" d="M1643.5806,-763C1713.7815,-763 1783.7093,-763 1783.7093,-763 1783.7093,-763 1783.7093,-586.1924 1783.7093,-586.1924"/>
<polygon fill="#ff0000" stroke="#ff0000" points="1787.2094,-586.1923 1783.7093,-576.1924 1780.2094,-586.1924 1787.2094,-586.1923"/>
<text text-anchor="middle" x="1663.6594" y="-634.2" font-family="Times,serif" font-size="14.00" fill="#000000">Communication </text>
<text text-anchor="middle" x="1663.6594" y="-617.4" font-family="Times,serif" font-size="14.00" fill="#000000">ok</text>
</g>
<!-- 53 -->
<g id="node24" class="node">
<title>53</title>
<path fill="#2a9d8f" stroke="#264653" d="M1424.8331,-398C1424.8331,-398 1348.7669,-398 1348.7669,-398 1342.7669,-398 1336.7669,-392 1336.7669,-386 1336.7669,-386 1336.7669,-374 1336.7669,-374 1336.7669,-368 1342.7669,-362 1348.7669,-362 1348.7669,-362 1424.8331,-362 1424.8331,-362 1430.8331,-362 1436.8331,-368 1436.8331,-374 1436.8331,-374 1436.8331,-386 1436.8331,-386 1436.8331,-392 1430.8331,-398 1424.8331,-398"/>
<text text-anchor="middle" x="1386.8" y="-375.8" font-family="Times,serif" font-size="14.00" fill="#ffffff">Déplacer robot</text>
</g>
<!-- 51&#45;&gt;53 -->
<g id="edge29" class="edge">
<title>51&#45;&gt;53</title>
<path fill="none" stroke="#ff0000" d="M1411.933,-539.9528C1411.933,-539.9528 1411.933,-408.0949 1411.933,-408.0949"/>
<polygon fill="#ff0000" stroke="#ff0000" points="1415.4331,-408.0949 1411.933,-398.0949 1408.4331,-408.095 1415.4331,-408.0949"/>
</g>
<!-- 57 -->
<g id="node28" class="node">
<title>57</title>
<ellipse fill="#000000" stroke="#000000" stroke-width="0" cx="1482.8" cy="-380" rx="1.8" ry="1.8"/>
<ellipse fill="none" stroke="#000000" stroke-width="0" cx="1482.8" cy="-380" rx="5.8" ry="5.8"/>
<ellipse fill="none" stroke="#000000" stroke-width="0" cx="1482.8" cy="-380" rx="9.8" ry="9.8"/>
</g>
<!-- 51&#45;&gt;57 -->
<g id="edge34" class="edge">
<title>51&#45;&gt;57</title>
<path fill="none" stroke="#ff0000" d="M1450.1889,-539.9528C1450.1889,-494.7001 1450.1889,-380 1450.1889,-380 1450.1889,-380 1462.8384,-380 1462.8384,-380"/>
<polygon fill="#ff0000" stroke="#ff0000" points="1462.8384,-383.5001 1472.8384,-380 1462.8384,-376.5001 1462.8384,-383.5001"/>
<text text-anchor="middle" x="1529.5313" y="-490.2" font-family="Times,serif" font-size="14.00" fill="#000000">Démarrage Ok ?</text>
</g>
<!-- 52&#45;&gt;53 -->
<g id="edge30" class="edge">
<title>52&#45;&gt;53</title>
<path fill="none" stroke="#ff0000" d="M1783.7093,-539.7117C1783.7093,-496.7519 1783.7093,-393 1783.7093,-393 1783.7093,-393 1447.0688,-393 1447.0688,-393"/>
<polygon fill="#ff0000" stroke="#ff0000" points="1447.0689,-389.5001 1437.0688,-393 1447.0688,-396.5001 1447.0689,-389.5001"/>
</g>
<!-- 58 -->
<g id="node29" class="node">
<title>58</title>
<ellipse fill="#000000" stroke="#000000" stroke-width="0" cx="1842.8" cy="-380" rx="1.8" ry="1.8"/>
<ellipse fill="none" stroke="#000000" stroke-width="0" cx="1842.8" cy="-380" rx="5.8" ry="5.8"/>
<ellipse fill="none" stroke="#000000" stroke-width="0" cx="1842.8" cy="-380" rx="9.8" ry="9.8"/>
</g>
<!-- 52&#45;&gt;58 -->
<g id="edge35" class="edge">
<title>52&#45;&gt;58</title>
<path fill="none" stroke="#ff0000" d="M1842.8,-539.9528C1842.8,-539.9528 1842.8,-400.0418 1842.8,-400.0418"/>
<polygon fill="#ff0000" stroke="#ff0000" points="1846.3001,-400.0418 1842.8,-390.0418 1839.3001,-400.0418 1846.3001,-400.0418"/>
<text text-anchor="middle" x="1889.5313" y="-490.2" font-family="Times,serif" font-size="14.00" fill="#000000">Démarrage Ok ?</text>
</g>
<!-- 53&#45;&gt;26 -->
<g id="edge37" class="edge">
<title>53&#45;&gt;26</title>
<path fill="none" stroke="#ff0000" stroke-dasharray="5,2" d="M1361.667,-361.5096C1361.667,-330.4115 1361.667,-271 1361.667,-271 1361.667,-271 460.3745,-271 460.3745,-271 460.3745,-271 460.3745,-179.7343 460.3745,-179.7343"/>
<polygon fill="#ff0000" stroke="#ff0000" points="463.8746,-179.7343 460.3745,-169.7343 456.8746,-179.7343 463.8746,-179.7343"/>
<text text-anchor="middle" x="1212.0984" y="-269.8" font-family="Times,serif" font-size="14.00" fill="#000000">Perte </text>
<text text-anchor="middle" x="1212.0984" y="-253" font-family="Times,serif" font-size="14.00" fill="#000000">communication </text>
<text text-anchor="middle" x="1212.0984" y="-236.2" font-family="Times,serif" font-size="14.00" fill="#000000">Robot</text>
</g>
<!-- 53&#45;&gt;53 -->
<g id="edge31" class="edge">
<title>53&#45;&gt;53</title>
<path fill="none" stroke="#ff0000" d="M1361.667,-398.1467C1361.667,-411.7395 1361.667,-428 1361.667,-428 1361.667,-428 1327.6502,-428 1327.6502,-428 1327.6502,-428 1327.6502,-331 1327.6502,-331 1327.6502,-331 1411.933,-331 1411.933,-331 1411.933,-331 1411.933,-351.7542 1411.933,-351.7542"/>
<polygon fill="#ff0000" stroke="#ff0000" points="1408.4331,-351.7542 1411.933,-361.7542 1415.4331,-351.7542 1408.4331,-351.7542"/>
</g>
<!-- 54 -->
<g id="node25" class="node">
<title>54</title>
<path fill="#2a9d8f" stroke="#264653" d="M1290.9161,-169.6C1290.9161,-169.6 1056.6839,-169.6 1056.6839,-169.6 1050.6839,-169.6 1044.6839,-163.6 1044.6839,-157.6 1044.6839,-157.6 1044.6839,-145.6 1044.6839,-145.6 1044.6839,-139.6 1050.6839,-133.6 1056.6839,-133.6 1056.6839,-133.6 1290.9161,-133.6 1290.9161,-133.6 1296.9161,-133.6 1302.9161,-139.6 1302.9161,-145.6 1302.9161,-145.6 1302.9161,-157.6 1302.9161,-157.6 1302.9161,-163.6 1296.9161,-169.6 1290.9161,-169.6"/>
<text text-anchor="middle" x="1173.8" y="-147.4" font-family="Times,serif" font-size="14.00" fill="#ffffff">Fermer_communication_RobotSuperviseur</text>
</g>
<!-- 53&#45;&gt;54 -->
<g id="edge38" class="edge">
<title>53&#45;&gt;54</title>
<path fill="none" stroke="#ff0000" stroke-dasharray="5,2" d="M1386.8,-361.6471C1386.8,-307.3062 1386.8,-151 1386.8,-151 1386.8,-151 1312.9225,-151 1312.9225,-151"/>
<polygon fill="#ff0000" stroke="#ff0000" points="1312.9226,-147.5001 1302.9225,-151 1312.9225,-154.5001 1312.9226,-147.5001"/>
<text text-anchor="middle" x="1394.0984" y="-269.8" font-family="Times,serif" font-size="14.00" fill="#000000">perte </text>
<text text-anchor="middle" x="1394.0984" y="-253" font-family="Times,serif" font-size="14.00" fill="#000000">communication </text>
<text text-anchor="middle" x="1394.0984" y="-236.2" font-family="Times,serif" font-size="14.00" fill="#000000">robot</text>
</g>
<!-- 54&#45;&gt;10 -->
<g id="edge39" class="edge">
<title>54&#45;&gt;10</title>
<path fill="none" stroke="#ff0000" d="M1044.4149,-160C901.0424,-160 689.8,-160 689.8,-160 689.8,-160 689.8,-749.4509 689.8,-749.4509"/>
<polygon fill="#ff0000" stroke="#ff0000" points="686.3001,-749.4508 689.8,-759.4509 693.3001,-749.4509 686.3001,-749.4508"/>
</g>
<!-- 55 -->
<g id="node26" class="node">
<title>55</title>
<ellipse fill="#000000" stroke="#000000" stroke-width="0" cx="983.8" cy="-777.6" rx="1.8" ry="1.8"/>
<ellipse fill="none" stroke="#000000" stroke-width="0" cx="983.8" cy="-777.6" rx="5.8" ry="5.8"/>
<ellipse fill="none" stroke="#000000" stroke-width="0" cx="983.8" cy="-777.6" rx="9.8" ry="9.8"/>
</g>
<!-- 55&#45;&gt;51 -->
<g id="edge32" class="edge">
<title>55&#45;&gt;51</title>
<path fill="none" stroke="#ff0000" stroke-dasharray="5,2" d="M983.8,-767.5186C983.8,-746.0994 983.8,-698 983.8,-698 983.8,-698 1326.0768,-698 1326.0768,-698 1326.0768,-698 1326.0768,-586.0159 1326.0768,-586.0159"/>
<polygon fill="#ff0000" stroke="#ff0000" points="1329.5768,-586.0159 1326.0768,-576.0159 1322.5768,-586.016 1329.5768,-586.0159"/>
<text text-anchor="middle" x="1023.8174" y="-642.6" font-family="Times,serif" font-size="14.00" fill="#000000">Choix </text>
<text text-anchor="middle" x="1023.8174" y="-625.8" font-family="Times,serif" font-size="14.00" fill="#000000">mode </text>
<text text-anchor="middle" x="1023.8174" y="-609" font-family="Times,serif" font-size="14.00" fill="#000000">démarrage</text>
</g>
<!-- 56 -->
<g id="node27" class="node">
<title>56</title>
<ellipse fill="#000000" stroke="#000000" stroke-width="0" cx="1842.8" cy="-777.6" rx="1.8" ry="1.8"/>
<ellipse fill="none" stroke="#000000" stroke-width="0" cx="1842.8" cy="-777.6" rx="5.8" ry="5.8"/>
<ellipse fill="none" stroke="#000000" stroke-width="0" cx="1842.8" cy="-777.6" rx="9.8" ry="9.8"/>
</g>
<!-- 56&#45;&gt;52 -->
<g id="edge33" class="edge">
<title>56&#45;&gt;52</title>
<path fill="none" stroke="#ff0000" stroke-dasharray="5,2" d="M1842.8,-767.5936C1842.8,-767.5936 1842.8,-586.1927 1842.8,-586.1927"/>
<polygon fill="#ff0000" stroke="#ff0000" points="1846.3001,-586.1927 1842.8,-576.1927 1839.3001,-586.1928 1846.3001,-586.1927"/>
<text text-anchor="middle" x="1872.8174" y="-642.6" font-family="Times,serif" font-size="14.00" fill="#000000">Choix </text>
<text text-anchor="middle" x="1872.8174" y="-625.8" font-family="Times,serif" font-size="14.00" fill="#000000">mode </text>
<text text-anchor="middle" x="1872.8174" y="-609" font-family="Times,serif" font-size="14.00" fill="#000000">démarrage</text>
</g>
<!-- 59 -->
<g id="node30" class="node">
<title>59</title>
<ellipse fill="#000000" stroke="#000000" stroke-width="0" cx="1089.8" cy="-558" rx="1.8" ry="1.8"/>
<ellipse fill="none" stroke="#000000" stroke-width="0" cx="1089.8" cy="-558" rx="5.8" ry="5.8"/>
<ellipse fill="none" stroke="#000000" stroke-width="0" cx="1089.8" cy="-558" rx="9.8" ry="9.8"/>
</g>
<!-- 59&#45;&gt;53 -->
<g id="edge36" class="edge">
<title>59&#45;&gt;53</title>
<path fill="none" stroke="#ff0000" d="M1089.8,-548C1089.8,-530 1089.8,-494 1089.8,-494 1089.8,-494 1386.8,-494 1386.8,-494 1386.8,-494 1386.8,-408.0636 1386.8,-408.0636"/>
<polygon fill="#ff0000" stroke="#ff0000" points="1390.3001,-408.0636 1386.8,-398.0636 1383.3001,-408.0637 1390.3001,-408.0636"/>
<text text-anchor="middle" x="1115.5404" y="-490.2" font-family="Times,serif" font-size="14.00" fill="#000000">Déplacer</text>
</g>
<!-- 61 -->
<g id="node32" class="node">
<title>61</title>
<polygon fill="#0077b6" stroke="#023e8a" points="387.2371,-1010.1003 34.3629,-1010.1003 34.3629,-934.6997 387.2371,-934.6997 387.2371,-1010.1003"/>
<text text-anchor="middle" x="210.8" y="-993.4" font-family="Times,serif" font-size="14.00" fill="#ffffff">Fonction 2: Connection_to_Monitor</text>
<text text-anchor="start" x="42.5816" y="-976.6" font-family="Times,serif" font-size="14.00" fill="#ffffff">Attendre &#39;Server Started&#39;</text>
<text text-anchor="start" x="42.5816" y="-959.8" font-family="Times,serif" font-size="14.00" fill="#ffffff">Lancer la méthode Accept_Client et attendre &#39;Open Socket&#39;</text>
<text text-anchor="start" x="42.5816" y="-943" font-family="Times,serif" font-size="14.00" fill="#ffffff">Si tout est bon produire &#39;Connection OK&#39;</text>
</g>
<!-- 66 -->
<g id="node33" class="node">
<title>66</title>
<polygon fill="#0077b6" stroke="#023e8a" points="1341.9306,-807.0014 1011.6694,-807.0014 1011.6694,-748.1986 1341.9306,-748.1986 1341.9306,-807.0014"/>
<text text-anchor="middle" x="1176.8" y="-790.2" font-family="Times,serif" font-size="14.00" fill="#ffffff">Fonction : Mettre en place communication avec le robot</text>
<text text-anchor="start" x="1019.7347" y="-773.4" font-family="Times,serif" font-size="14.00" fill="#ffffff">Si Etablir_communication()</text>
<text text-anchor="start" x="1019.7347" y="-756.6" font-family="Times,serif" font-size="14.00" fill="#ffffff"> &#160;&#160;&#160;&#160;&#160;&#160;&#160;&#160;&#160;&#160;&#160;CommunicationOK</text>
</g>
<!-- 67 -->
<g id="node34" class="node">
<title>67</title>
<polygon fill="#0077b6" stroke="#023e8a" points="1292.696,-586.6014 1116.904,-586.6014 1116.904,-529.3986 1292.696,-529.3986 1292.696,-586.6014"/>
<text text-anchor="middle" x="1204.8" y="-570.2" font-family="Times,serif" font-size="14.00" fill="#ffffff">Fonctions : Démarrage</text>
<text text-anchor="middle" x="1204.8" y="-537.4" font-family="Times,serif" font-size="14.00" fill="#ffffff">Sort le robot de veille par ex</text>
</g>
<!-- 68 -->
<g id="node35" class="node">
<title>68</title>
<polygon fill="#0077b6" stroke="#023e8a" points="1318.7326,-459.7001 1032.8674,-459.7001 1032.8674,-300.2999 1318.7326,-300.2999 1318.7326,-459.7001"/>
<text text-anchor="middle" x="1175.8" y="-443" font-family="Times,serif" font-size="14.00" fill="#ffffff">Fonction 4: Déplacer robot</text>
<text text-anchor="start" x="1040.8337" y="-426.2" font-family="Times,serif" font-size="14.00" fill="#ffffff">tant que périodiquement (100ms)</text>
<text text-anchor="start" x="1040.8337" y="-409.4" font-family="Times,serif" font-size="14.00" fill="#ffffff">si robot démarré est vrai</text>
<text text-anchor="start" x="1040.8337" y="-392.6" font-family="Times,serif" font-size="14.00" fill="#ffffff"> &#160;&#160;&#160;&#160;&#160;&#160;&#160;déplacer robot</text>
<text text-anchor="start" x="1040.8337" y="-375.8" font-family="Times,serif" font-size="14.00" fill="#ffffff"> &#160;&#160;&#160;&#160;&#160;&#160;&#160;tant que ordre non acquitte et compteur &lt; 3</text>
<text text-anchor="start" x="1040.8337" y="-359" font-family="Times,serif" font-size="14.00" fill="#ffffff"> &#160;&#160;&#160;&#160;&#160;&#160;&#160;(compteurAcquittement sur le superviseur)</text>
<text text-anchor="start" x="1040.8337" y="-342.2" font-family="Times,serif" font-size="14.00" fill="#ffffff"> &#160;&#160;&#160;&#160;&#160;&#160;&#160;&#160;&#160;&#160;&#160;&#160;&#160;&#160;&#160;envoyer ordre</text>
<text text-anchor="start" x="1040.8337" y="-325.4" font-family="Times,serif" font-size="14.00" fill="#ffffff"> &#160;&#160;&#160;&#160;&#160;&#160;&#160;&#160;&#160;&#160;&#160;&#160;&#160;&#160;&#160;si compteur = 4</text>
<text text-anchor="middle" x="1175.8" y="-308.6" font-family="Times,serif" font-size="14.00" fill="#ffffff"> &#160;&#160;&#160;&#160;&#160;&#160;&#160;&#160;&#160;&#160;&#160;&#160;&#160;&#160;&#160;&#160;&#160;&#160;&#160;&#160;&#160;&#160;&#160;PerteCommunicationRobot</text>
</g>
<!-- 69 -->
<g id="node36" class="node">
<title>69</title>
<polygon fill="#0077b6" stroke="#023e8a" points="1715.9463,-586.6014 1487.6537,-586.6014 1487.6537,-529.3986 1715.9463,-529.3986 1715.9463,-586.6014"/>
<text text-anchor="middle" x="1601.8" y="-570.2" font-family="Times,serif" font-size="14.00" fill="#ffffff">Fonction 10 : Démarrage avec wd</text>
<text text-anchor="middle" x="1601.8" y="-537.4" font-family="Times,serif" font-size="14.00" fill="#ffffff">Lancement du compteur (sur le robot)</text>
</g>
<!-- 70 -->
<g id="node37" class="node">
<title>70</title>
<polygon fill="#0077b6" stroke="#023e8a" points="332.9514,-213.9002 54.6486,-213.9002 54.6486,-89.2998 332.9514,-89.2998 332.9514,-213.9002"/>
<text text-anchor="middle" x="193.8" y="-197.4" font-family="Times,serif" font-size="14.00" fill="#ffffff">Fonction 4: Send_To_Monitor (délai de 10ms)</text>
<text text-anchor="start" x="62.4744" y="-164.6" font-family="Times,serif" font-size="14.00" fill="#ffffff">Attendre &#39;Connection OK&#39;</text>
<text text-anchor="start" x="62.4744" y="-147.8" font-family="Times,serif" font-size="14.00" fill="#ffffff">Tant que</text>
<text text-anchor="start" x="62.4744" y="-131" font-family="Times,serif" font-size="14.00" fill="#ffffff"> &#160;&#160;&#160;&#160;Attendre MessToMon</text>
<text text-anchor="start" x="62.4744" y="-114.2" font-family="Times,serif" font-size="14.00" fill="#ffffff"> &#160;&#160;&#160;&#160;Envoyer le message au moniteur (Write)</text>
<text text-anchor="middle" x="193.8" y="-97.4" font-family="Times,serif" font-size="14.00" fill="#ffffff">Fin tant que</text>
</g>
<!-- 71 -->
<g id="node38" class="node">
<title>71</title>
<polygon fill="#0077b6" stroke="#023e8a" points="549.8964,-881.9001 165.7036,-881.9001 165.7036,-673.2999 549.8964,-673.2999 549.8964,-881.9001"/>
<text text-anchor="middle" x="357.8" y="-865.4" font-family="Times,serif" font-size="14.00" fill="#ffffff">Fonction 3&#45;5: Receive_From_Monitor</text>
<text text-anchor="start" x="173.7518" y="-832.6" font-family="Times,serif" font-size="14.00" fill="#ffffff">Attendre &#39;Connection OK&#39;</text>
<text text-anchor="start" x="173.7518" y="-815.8" font-family="Times,serif" font-size="14.00" fill="#ffffff">Tant que</text>
<text text-anchor="start" x="173.7518" y="-799" font-family="Times,serif" font-size="14.00" fill="#ffffff"> &#160;&#160;&#160;&#160;Attendre message de InputStreal</text>
<text text-anchor="start" x="173.7518" y="-782.2" font-family="Times,serif" font-size="14.00" fill="#ffffff"> &#160;&#160;&#160;&#160;if MESSAGE_MONITOR_LOST</text>
<text text-anchor="start" x="173.7518" y="-765.4" font-family="Times,serif" font-size="14.00" fill="#ffffff"> &#160;&#160;&#160;&#160;&#160;&#160;&#160;&#160;&#160;Affichage message</text>
<text text-anchor="start" x="173.7518" y="-748.6" font-family="Times,serif" font-size="14.00" fill="#ffffff"> &#160;&#160;&#160;&#160;&#160;&#160;&#160;&#160;&#160;d&#39;erreur sur console de lancement (Fonctionnalité 5)</text>
<text text-anchor="start" x="173.7518" y="-731.8" font-family="Times,serif" font-size="14.00" fill="#ffffff"> &#160;&#160;&#160;&#160;&#160;&#160;&#160;&#160;&#160;Générer &#39;PerteCommunication&#39;</text>
<text text-anchor="start" x="173.7518" y="-715" font-family="Times,serif" font-size="14.00" fill="#ffffff"> &#160;&#160;&#160;&#160;Traiter le message</text>
<text text-anchor="start" x="173.7518" y="-698.2" font-family="Times,serif" font-size="14.00" fill="#ffffff">Fin tant que</text>
<text text-anchor="middle" x="357.8" y="-681.4" font-family="Times,serif" font-size="14.00" fill="#ffffff">Doit checker le statut de la caméra avant d&#39;exécuter ses fonctions</text>
</g>
<!-- 133 -->
<g id="node39" class="node">
<title>133</title>
<ellipse fill="none" stroke="#000000" cx="587.8" cy="-1169.6" rx="29.0509" ry="18"/>
<text text-anchor="middle" x="587.8" y="-1165.4" font-family="Times,serif" font-size="14.00" fill="#000000">test1</text>
</g>
<!-- 134 -->
<g id="node40" class="node">
<title>134</title>
<ellipse fill="none" stroke="#000000" cx="587.8" cy="-1080.8" rx="29.0509" ry="18"/>
<text text-anchor="middle" x="587.8" y="-1076.6" font-family="Times,serif" font-size="14.00" fill="#000000">test2</text>
</g>
<!-- 133&#45;&gt;134 -->
<g id="edge42" class="edge">
<title>133&#45;&gt;134</title>
<path fill="none" stroke="#000000" d="M587.8,-1131.2006C587.8,-1131.2006 587.8,-1118.872 587.8,-1118.872"/>
<polygon fill="#000000" stroke="#000000" points="587.8,-1098.872 592.3,-1108.872 587.8,-1103.872 587.8,-1108.872 587.8,-1108.872 587.8,-1108.872 587.8,-1103.872 583.3,-1108.872 587.8,-1098.872 587.8,-1098.872"/>
<polygon fill="#000000" stroke="#000000" points="591.3001,-1118.872 587.8,-1108.872 584.3001,-1118.872 591.3001,-1118.872"/>
<polygon fill="#000000" stroke="#000000" points="584.3,-1151.2006 587.8,-1141.2006 591.3,-1151.2006 584.3,-1151.2006"/>
<polygon fill="#000000" stroke="#000000" points="587.8001,-1131.2006 583.3,-1141.2006 587.8,-1136.2006 587.8,-1141.2006 587.8,-1141.2006 587.8,-1141.2006 587.8,-1136.2006 592.3,-1141.2006 587.8001,-1131.2006 587.8001,-1131.2006"/>
<text text-anchor="middle" x="597.5202" y="-1121" font-family="Times,serif" font-size="14.00" fill="#000000">test</text>
</g>
</g>
</svg>
